<svg width="16" height="16" viewBox="0 0 16 16" fill="none" xmlns="http://www.w3.org/2000/svg">
<path d="M3.34661 11.3289L2.47428 14.8944L2.36841 15.324C2.36191 15.3506 2.35355 15.3768 2.34272 15.4015C2.18546 15.7609 1.90841 15.9999 1.59328 15.9999C1.48401 15.9999 1.37938 15.9712 1.2828 15.9188C1.08375 15.8111 0.939812 15.599 0.8714 15.3546L0.703311 14.7558L0.217619 13.0291L0.0399336 12.3976C-0.099676 11.9014 0.143016 11.3365 0.515411 11.3296C0.518197 11.3296 0.520983 11.3296 0.524079 11.3296H3.34661V11.3289Z" fill="#F29F04"/>
<path d="M10.4428 9.4502C10.4329 9.43783 10.4227 9.42583 10.4122 9.41419C10.2561 9.23776 10.0277 9.14282 9.79212 9.14282H4.7247C4.62038 9.14282 4.51761 9.1752 4.43496 9.23922C4.43372 9.23995 4.43279 9.24104 4.43155 9.24177C4.36252 9.2956 4.31237 9.36981 4.28327 9.45202L4.08949 9.99693C4.08949 9.99766 4.08949 9.99766 4.08949 9.99766L3.34656 12.0824H6.11925L7.17917 15.0194V15.0205L7.42588 15.704C7.58283 15.8869 7.80261 16.0001 8.04623 16.0001C8.31771 16.0001 8.56071 15.8589 8.71951 15.637C8.73871 15.6101 8.75418 15.5799 8.76502 15.5472L8.90958 15.1074L9.9048 12.0824L10.3422 10.9031L10.571 10.2876C10.6759 10.0049 10.6323 9.68446 10.4428 9.4502Z" fill="#F28705"/>
<path d="M11.1907 7.95496H6.28147C5.49365 7.95496 4.85535 7.20452 4.85535 6.27911V4.60327H11.1907C11.9785 4.60327 12.6168 5.35371 12.6168 6.27911C12.6168 7.20452 11.9782 7.95496 11.1907 7.95496Z" fill="#F29F04"/>
<path d="M14.5738 3.35169H6.28147C5.49365 3.35169 4.85535 2.60125 4.85535 1.67584V0H14.5738C15.3617 0 16 0.750438 16 1.67584C16 2.60125 15.3614 3.35169 14.5738 3.35169Z" fill="#E0650A"/>
<path d="M8.02343 15.6471L7.7504 14.8322V14.8308L6.81957 12.052C6.6716 11.61 6.36019 11.3289 6.01875 11.3289H2.917L1.87287 14.8944C1.87256 14.8959 1.87225 14.8973 1.87225 14.8988L1.7345 15.3637L1.54907 15.9995H8.14168L8.02343 15.6471Z" fill="#E0650A"/>
</svg>
