<svg width="607" height="566" viewBox="0 0 607 566" fill="none" xmlns="http://www.w3.org/2000/svg">
<g clip-path="url(#clip0_64_2)">
<path fill-rule="evenodd" clip-rule="evenodd" d="M547.379 184.328C547.008 184.058 546.128 183.962 545.718 183.882C544.015 183.546 542.261 183.4 540.525 183.4C535.171 183.408 529.731 183.933 524.466 184.843C521.124 185.42 517.083 187.362 513.758 186.307C507.965 184.47 502.111 184.559 496.615 187.183C491.591 189.583 487.776 194.141 485.55 199.064C485.214 199.808 483.852 202.544 483.466 204.388C483.301 204.765 483.143 205.145 483 205.53C482.595 206.624 482.231 207.738 481.893 208.853C481.749 209.329 481.386 210.38 481.817 210.583C481.128 211.854 480.518 213.163 480.009 214.515C478.531 218.447 476.914 222.76 476.394 226.926C476.202 228.469 476.194 230.021 476.373 231.568C476.462 232.332 476.425 233.869 476.943 234.449C478.043 235.683 478.608 233.956 478.483 233.134C477.537 226.869 479.365 220.985 481.531 215.095C482.933 211.287 485.235 207.803 487.813 204.647C489.9 202.093 492.139 200.083 495 198.389C498.499 196.318 502.239 194.644 505.945 192.964C508.382 191.86 510.823 190.785 513.328 189.833C513.885 189.621 514.762 189.077 515.38 189.076C516.686 189.071 518.537 190.035 519.798 190.393C523.949 191.573 528.152 193.083 532.442 193.685C535.192 194.072 537.77 193.637 540.343 192.72C540.606 192.627 541.047 192.387 541.587 192.043C543.497 191.308 545.304 190.384 546.878 189.05C547.784 188.281 548.606 187.288 549.357 186.379C549.581 186.108 549.681 185.796 549.684 185.5C549.854 185.411 549.966 185.307 549.992 185.186C550.179 184.291 548.473 184.275 547.379 184.328Z" fill="#89C5CC"/>
<path fill-rule="evenodd" clip-rule="evenodd" d="M540.144 209.212C537.761 208.697 535.13 208.736 532.704 208.779C519.688 208.954 506.907 215.06 498.589 224.817C491.507 233.123 489.56 243.45 488.161 253.889C488.022 254.925 487.963 255.955 487.885 256.994C487.868 257.217 487.843 257.416 487.816 257.603C487.266 258.09 486.977 258.659 487.302 259.283C486.091 261.911 485.066 264.606 484.186 267.385C481.597 275.566 478.963 283.903 480.585 292.506C480.964 287.772 481.762 282.931 482.715 278.274C482.77 278.007 482.829 277.742 482.891 277.477C482.897 277.45 482.903 277.422 482.91 277.394C483.247 275.968 483.686 274.585 484.219 273.224C484.225 273.208 484.231 273.194 484.236 273.179C484.307 273 484.381 272.822 484.456 272.644C484.608 272.275 484.765 271.906 484.931 271.54C484.988 271.415 485.042 271.289 485.094 271.162C485.871 269.275 486.199 267.15 486.895 265.197C487.061 264.753 487.236 264.312 487.418 263.871C487.428 263.846 487.439 263.82 487.451 263.794C487.943 262.61 488.488 261.441 489.064 260.284C489.377 260.051 489.544 259.472 489.813 258.947C489.869 258.844 490.306 258.153 490.436 257.755C490.775 257.105 491.113 256.455 491.455 255.807C491.444 255.81 491.434 255.814 491.424 255.817C491.765 255.194 492.108 254.574 492.448 253.956C492.523 253.82 492.599 253.684 492.674 253.548C492.796 253.332 492.918 253.115 493.04 252.899C494.18 250.878 495.389 248.896 496.644 246.94C497.092 246.241 498.163 245.24 498.368 244.456C498.375 244.427 498.377 244.4 498.382 244.372C501.106 240.58 504.242 237.083 508.003 234.313C507.549 234.8 506.582 236.453 506.326 236.779C505.545 237.781 504.696 238.714 503.844 239.657C502.318 241.348 500.829 243.093 499.505 244.937C497.084 248.311 494.996 251.861 493.022 255.482C493.003 255.504 492.983 255.524 492.965 255.546C491.973 256.758 491.349 258.59 490.634 259.976C493.461 258.679 496.586 257.834 499.487 256.682C502.379 255.533 505.194 254.255 507.91 252.753C511.521 250.757 515.267 248.504 518.678 245.954C522.588 243.551 525.874 240.243 528.774 236.772C532.205 232.665 535.35 228.522 537.295 223.535C538.25 221.085 539.001 218.53 539.447 215.944C539.466 215.832 539.491 215.71 539.518 215.583C539.974 214.69 540.382 213.777 540.724 212.843C541.267 211.362 542.549 209.733 540.144 209.212Z" fill="#56919C"/>
<path fill-rule="evenodd" clip-rule="evenodd" d="M561.755 291.541C560.368 288.394 557.429 285.96 554.543 284.157C543.269 277.112 530.052 274.684 516.993 275.212C509.838 275.502 502.626 277.058 495.828 279.122C491.903 280.314 488.093 281.875 484.679 284.126C482.376 285.645 480.322 287.444 478.439 289.448C476.145 291.89 473.93 294.46 471.961 297.169C471.185 298.237 466.839 303.753 468.627 305.01C468.525 305.149 468.436 305.286 468.369 305.419C460.415 309.206 453.32 315.038 446.645 320.597C440.836 325.436 435.214 330.463 430.118 336.039C423.41 343.381 417.146 351.175 411.413 359.292C410.18 361.036 408.98 362.801 407.788 364.574C406.771 366.086 405.754 367.598 404.739 369.111C403.6 370.807 402.051 372.61 401.251 374.501C400.554 376.149 401.989 376.731 402.978 375.276C404.172 373.518 405.288 371.707 406.493 369.953C408.092 367.627 409.694 365.303 411.305 362.984C422.496 346.882 435.772 332.422 451.202 320.248C457.447 315.321 463.812 310.941 470.835 307.163C477.01 303.841 483.68 301.057 490.215 298.666C496.566 296.343 502.991 294.212 509.703 293.076C515.151 292.154 520.697 291.852 526.234 291.806C533.267 291.746 540.241 291.759 547.227 292.706C550.858 293.198 554.46 293.858 558.081 294.416C558.733 294.516 559.417 294.646 560.071 294.699C562.252 294.877 562.511 293.255 561.755 291.541Z" fill="#C1DEE2"/>
<path fill-rule="evenodd" clip-rule="evenodd" d="M130.647 227.73C129.596 228.555 128.565 229.397 127.559 230.273C126.792 230.94 125.436 231.739 125.161 232.751C124.874 233.803 125.778 234.787 126.491 235.422C130.264 238.785 134.512 241.057 139.74 241.435C147.789 242.017 154.795 240.026 161.778 236.109C166.684 233.357 169.934 229.287 170.644 223.791C176.486 226.143 182.137 229.384 186.939 233.362C189.308 235.325 191.348 237.501 193.236 239.911C194.445 241.455 195.614 243.024 196.7 244.654C197.172 245.362 197.651 246.617 198.43 247.025C199.344 247.504 200.449 246.753 200.404 245.769C200.366 244.95 199.452 243.999 199.025 243.329C198.316 242.217 197.596 241.112 196.838 240.03C195.611 238.279 194.342 236.552 192.959 234.913C189.85 231.231 185.895 228.189 181.795 225.594C173.929 220.618 165.297 217.483 155.726 217.217C149.841 217.054 144.891 219.001 139.858 221.909C136.725 223.719 133.49 225.5 130.647 227.73Z" fill="#C7D1D9"/>
<path fill-rule="evenodd" clip-rule="evenodd" d="M193.902 227.97C187.784 221.658 181.646 215.425 174.811 209.867C170.783 206.591 166.538 203.613 162.381 200.507C162.861 200.928 163.331 201.362 163.791 201.806C162.493 200.923 160.794 200.424 159.419 199.607C157.883 198.696 156.417 197.654 154.978 196.603C152.169 194.552 149.403 192.463 146.516 190.52C143.299 188.354 139.966 186.354 136.695 184.27C133.918 182.501 131.109 180.566 128.138 179.12C126.519 178.332 124.896 177.398 123.271 176.576C122.727 176.301 117.208 172.809 117.221 172.799C117.526 172.569 120.304 173.876 120.734 174.052C121.988 174.565 123.188 175.18 124.395 175.792C123.733 174.483 123.208 173.109 122.923 171.661C122.835 171.215 122.129 167.962 122.491 167.689C122.671 167.553 124.432 173.371 124.522 173.931C124.595 174.386 124.585 175.04 124.733 175.47C124.973 176.165 124.961 175.955 125.489 176.347C126.456 177.064 127.741 177.513 128.788 178.112C129.353 178.428 131.102 179.681 132.155 180.038C135.342 181.589 138.572 183.975 141.601 185.956C140.806 184.46 140.201 182.894 139.76 181.255C139.655 180.866 138.523 177.373 138.798 177.166C139.106 176.933 141.263 182.267 141.391 182.771C141.628 183.71 141.677 184.753 141.975 185.666C142.3 186.668 143.319 187.023 144.235 187.607C147.61 189.755 150.868 192.037 154.072 194.424C157.568 188.195 153.538 180.672 150.14 175.444C147.691 171.676 144.394 168.446 140.913 165.627C136.267 161.864 130.952 158.857 125.643 156.107C119.457 152.902 112.772 150.917 105.821 150C102.185 149.52 98.4666 149.534 94.7947 149.688C93.0006 149.763 91.2787 150 89.5599 150.587C88.7846 150.852 88.0362 151.184 87.3063 151.558C86.7523 151.841 85.4107 152.141 85.0919 152.564C82.4679 155.986 81.1256 159.396 81.3308 163.696C81.5244 167.766 82.8076 171.839 84.5486 175.471C86.488 179.514 88.9821 183.183 92.2437 186.263C94.7324 188.613 97.5154 190.658 100.279 192.676C110.11 199.855 122.574 206.098 135.306 204.494C139.428 203.975 143.348 202.531 147.011 200.569C147.874 200.106 148.732 199.638 149.547 199.092C150.096 198.724 151.565 197.066 152.118 197.005C152.875 196.923 154.507 198.467 155.217 198.936C160.617 202.508 165.877 206.273 171.025 210.191C176.503 214.359 181.712 218.811 186.768 223.472C188.918 225.455 191.055 227.442 193.143 229.491C193.629 229.968 194.817 231.723 195.699 231.802C196.257 231.853 196.632 231.376 196.552 230.86C196.414 229.961 194.528 228.617 193.902 227.97Z" fill="#C1DEE2"/>
<mask id="mask0_64_2" style="mask-type:luminance" maskUnits="userSpaceOnUse" x="129" y="101" width="148" height="210">
<path d="M276.472 101.954H129.717V310.947H276.472V101.954Z" fill="white"/>
</mask>
<g mask="url(#mask0_64_2)">
<path fill-rule="evenodd" clip-rule="evenodd" d="M139.044 249.478C138.026 249.478 137.011 249.499 135.995 249.551C135.219 249.592 134.035 249.432 133.38 249.915C132.698 250.417 132.745 251.443 132.852 252.168C133.414 256.004 134.787 259.405 137.66 262.123C142.084 266.306 147.154 268.432 153.154 269.379C157.369 270.044 161.26 269.121 164.363 266.123C166.63 270.331 168.35 274.987 169.213 279.686C169.639 282.005 169.768 284.296 169.694 286.658C169.645 288.17 169.562 289.679 169.4 291.184C169.33 291.838 168.996 292.827 169.252 293.446C169.552 294.171 170.566 294.242 171.021 293.623C171.4 293.108 171.33 292.096 171.408 291.487C171.537 290.474 171.656 289.461 171.742 288.443C171.881 286.797 171.983 285.145 171.976 283.492C171.958 279.779 171.132 276.05 170.003 272.525C167.836 265.761 164.321 259.751 158.853 255.034C155.491 252.135 151.643 250.961 147.278 250.33C144.559 249.937 141.797 249.478 139.044 249.478Z" fill="#89C5CC"/>
<path fill-rule="evenodd" clip-rule="evenodd" d="M154.743 276.371C143.756 276.371 136.357 285.225 132.858 294.429C131.539 297.897 131.23 301.707 130.721 305.349C130.559 306.518 130.619 308.299 130.144 309.34C129.972 309.718 129.577 309.853 129.766 310.368C129.881 310.679 130.104 310.871 130.442 310.932C131.132 311.06 132.11 310.307 132.702 310.01C137.617 307.545 140.845 303.734 143.479 299.072C145.113 296.182 146.769 293.182 147.739 290.009C148.331 288.071 148.676 286.03 148.879 284.019C148.959 283.227 149.036 282.416 149.031 281.62C149.027 280.83 148.659 280.412 148.394 279.724C152.06 278.336 156.199 277.958 159.912 279.396C163.347 280.726 166.199 283.296 167.797 286.525C168.212 287.364 168.532 288.25 168.765 289.153C168.918 289.745 168.925 290.512 169.208 291.046C169.894 292.343 171.337 291.477 171.198 290.27C170.812 286.903 168.886 283.523 166.425 281.183C163.32 278.231 159.112 276.371 154.743 276.371Z" fill="#89C5CC"/>
<path d="M270.325 101.954H172.744C169.349 101.954 166.597 104.706 166.597 108.101V304.032C166.597 307.426 169.349 310.178 172.744 310.178H270.325C273.72 310.178 276.472 307.426 276.472 304.032V108.101C276.472 104.706 273.72 101.954 270.325 101.954Z" fill="#C7D1D9"/>
<path d="M221.151 297.885C227.516 297.885 232.676 292.725 232.676 286.359C232.676 279.994 227.516 274.834 221.151 274.834C214.785 274.834 209.625 279.994 209.625 286.359C209.625 292.725 214.785 297.885 221.151 297.885Z" fill="white"/>
<path d="M211.162 115.785C212.011 115.785 212.699 115.097 212.699 114.248C212.699 113.399 212.011 112.711 211.162 112.711C210.313 112.711 209.625 113.399 209.625 114.248C209.625 115.097 210.313 115.785 211.162 115.785Z" fill="white"/>
<path d="M231.139 112.711H218.077C217.229 112.711 216.541 113.399 216.541 114.248C216.541 115.097 217.229 115.785 218.077 115.785H231.139C231.988 115.785 232.676 115.097 232.676 114.248C232.676 113.399 231.988 112.711 231.139 112.711Z" fill="white"/>
<mask id="mask1_64_2" style="mask-type:luminance" maskUnits="userSpaceOnUse" x="178" y="123" width="86" height="142">
<path d="M263.41 123.468H178.891V264.077H263.41V123.468Z" fill="white"/>
</mask>
<g mask="url(#mask1_64_2)">
<mask id="mask2_64_2" style="mask-type:luminance" maskUnits="userSpaceOnUse" x="178" y="123" width="86" height="38">
<path d="M263.41 123.468H178.891V160.349H263.41V123.468Z" fill="white"/>
</mask>
<g mask="url(#mask2_64_2)">
<path d="M260.337 123.468H181.965C180.267 123.468 178.891 124.844 178.891 126.542V157.276C178.891 158.973 180.267 160.349 181.965 160.349H260.337C262.034 160.349 263.41 158.973 263.41 157.276V126.542C263.41 124.844 262.034 123.468 260.337 123.468Z" fill="white"/>
<mask id="mask3_64_2" style="mask-type:luminance" maskUnits="userSpaceOnUse" x="185" y="134" width="41" height="16">
<path d="M225.761 134.533H185.806V149.285H225.761V134.533Z" fill="white"/>
</mask>
<g mask="url(#mask3_64_2)">
<path d="M223.456 134.533H188.111C186.838 134.533 185.806 135.565 185.806 136.838V137.76C185.806 139.033 186.838 140.065 188.111 140.065H223.456C224.729 140.065 225.761 139.033 225.761 137.76V136.838C225.761 135.565 224.729 134.533 223.456 134.533Z" fill="#C7D1D9"/>
<path d="M210.32 143.753H188.111C186.838 143.753 185.806 144.785 185.806 146.058V146.98C185.806 148.253 186.838 149.285 188.111 149.285H210.32C211.593 149.285 212.625 148.253 212.625 146.98V146.058C212.625 144.785 211.593 143.753 210.32 143.753Z" fill="#C7D1D9"/>
</g>
<path d="M254.377 147.287C257.348 147.287 259.756 144.879 259.756 141.909C259.756 138.938 257.348 136.53 254.377 136.53C251.407 136.53 248.999 138.938 248.999 141.909C248.999 144.879 251.407 147.287 254.377 147.287Z" fill="#C7D1D9"/>
<path d="M254.377 144.214C255.65 144.214 256.682 143.182 256.682 141.909C256.682 140.636 255.65 139.604 254.377 139.604C253.104 139.604 252.072 140.636 252.072 141.909C252.072 143.182 253.104 144.214 254.377 144.214Z" fill="#F2F2F2"/>
</g>
<mask id="mask4_64_2" style="mask-type:luminance" maskUnits="userSpaceOnUse" x="178" y="166" width="86" height="29">
<path d="M263.41 166.496H178.891V194.925H263.41V166.496Z" fill="white"/>
</mask>
<g mask="url(#mask4_64_2)">
<path d="M260.337 166.496H181.965C180.267 166.496 178.891 167.872 178.891 169.57V191.852C178.891 193.549 180.267 194.925 181.965 194.925H260.337C262.034 194.925 263.41 193.549 263.41 191.852V169.57C263.41 167.872 262.034 166.496 260.337 166.496Z" fill="white"/>
<mask id="mask5_64_2" style="mask-type:luminance" maskUnits="userSpaceOnUse" x="208" y="175" width="41" height="12">
<path d="M248.811 175.025H208.857V186.397H248.811V175.025Z" fill="white"/>
</mask>
<g mask="url(#mask5_64_2)">
<path d="M246.679 175.025H210.989C209.812 175.025 208.857 175.98 208.857 177.157C208.857 178.335 209.812 179.289 210.989 179.289H246.679C247.857 179.289 248.811 178.335 248.811 177.157C248.811 175.98 247.857 175.025 246.679 175.025Z" fill="#C7D1D9"/>
<path d="M233.543 182.132H210.989C209.812 182.132 208.857 183.087 208.857 184.264C208.857 185.442 209.812 186.397 210.989 186.397H233.543C234.721 186.397 235.676 185.442 235.676 184.264C235.676 183.087 234.721 182.132 233.543 182.132Z" fill="#C7D1D9"/>
</g>
<path d="M195.027 189.931C200.119 189.931 204.247 185.803 204.247 180.711C204.247 175.619 200.119 171.491 195.027 171.491C189.934 171.491 185.806 175.619 185.806 180.711C185.806 185.803 189.934 189.931 195.027 189.931Z" fill="#C5CFD6"/>
</g>
<mask id="mask6_64_2" style="mask-type:luminance" maskUnits="userSpaceOnUse" x="178" y="201" width="86" height="29">
<path d="M263.41 201.072H178.891V229.501H263.41V201.072Z" fill="white"/>
</mask>
<g mask="url(#mask6_64_2)">
<path d="M260.337 201.072H181.965C180.267 201.072 178.891 202.448 178.891 204.146V226.428C178.891 228.125 180.267 229.501 181.965 229.501H260.337C262.034 229.501 263.41 228.125 263.41 226.428V204.146C263.41 202.448 262.034 201.072 260.337 201.072Z" fill="white"/>
<mask id="mask7_64_2" style="mask-type:luminance" maskUnits="userSpaceOnUse" x="185" y="209" width="41" height="12">
<path d="M225.761 209.601H185.806V220.973H225.761V209.601Z" fill="white"/>
</mask>
<g mask="url(#mask7_64_2)">
<path d="M223.629 209.601H187.939C186.761 209.601 185.806 210.555 185.806 211.733C185.806 212.911 186.761 213.865 187.939 213.865H223.629C224.806 213.865 225.761 212.911 225.761 211.733C225.761 210.555 224.806 209.601 223.629 209.601Z" fill="#C7D1D9"/>
<path d="M210.493 216.708H187.939C186.761 216.708 185.806 217.663 185.806 218.84C185.806 220.018 186.761 220.973 187.939 220.973H210.493C211.67 220.973 212.625 220.018 212.625 218.84C212.625 217.663 211.67 216.708 210.493 216.708Z" fill="#C7D1D9"/>
</g>
<path d="M254.377 220.665C257.348 220.665 259.756 218.257 259.756 215.287C259.756 212.316 257.348 209.908 254.377 209.908C251.407 209.908 248.999 212.316 248.999 215.287C248.999 218.257 251.407 220.665 254.377 220.665Z" fill="#C7D1D9"/>
<path d="M254.377 217.592C255.65 217.592 256.682 216.56 256.682 215.287C256.682 214.014 255.65 212.982 254.377 212.982C253.104 212.982 252.072 214.014 252.072 215.287C252.072 216.56 253.104 217.592 254.377 217.592Z" fill="#F2F2F2"/>
</g>
<mask id="mask8_64_2" style="mask-type:luminance" maskUnits="userSpaceOnUse" x="178" y="235" width="86" height="30">
<path d="M263.41 235.648H178.891V264.077H263.41V235.648Z" fill="white"/>
</mask>
<g mask="url(#mask8_64_2)">
<path d="M260.337 235.648H181.965C180.267 235.648 178.891 237.024 178.891 238.722V261.004C178.891 262.701 180.267 264.077 181.965 264.077H260.337C262.034 264.077 263.41 262.701 263.41 261.004V238.722C263.41 237.024 262.034 235.648 260.337 235.648Z" fill="white"/>
<mask id="mask9_64_2" style="mask-type:luminance" maskUnits="userSpaceOnUse" x="208" y="244" width="41" height="12">
<path d="M248.811 244.177H208.857V255.548H248.811V244.177Z" fill="white"/>
</mask>
<g mask="url(#mask9_64_2)">
<path d="M246.679 244.177H210.989C209.812 244.177 208.857 245.131 208.857 246.309C208.857 247.487 209.812 248.441 210.989 248.441H246.679C247.857 248.441 248.811 247.487 248.811 246.309C248.811 245.131 247.857 244.177 246.679 244.177Z" fill="#C7D1D9"/>
<path d="M233.543 251.284H210.989C209.812 251.284 208.857 252.239 208.857 253.416C208.857 254.594 209.812 255.548 210.989 255.548H233.543C234.721 255.548 235.676 254.594 235.676 253.416C235.676 252.239 234.721 251.284 233.543 251.284Z" fill="#C7D1D9"/>
</g>
<path d="M195.027 259.083C200.119 259.083 204.247 254.955 204.247 249.863C204.247 244.77 200.119 240.642 195.027 240.642C189.934 240.642 185.806 244.77 185.806 249.863C185.806 254.955 189.934 259.083 195.027 259.083Z" fill="#C5CFD6"/>
</g>
</g>
</g>
<mask id="mask10_64_2" style="mask-type:luminance" maskUnits="userSpaceOnUse" x="254" y="137" width="233" height="240">
<path d="M486.233 137.299H254.19V376.257H486.233V137.299Z" fill="white"/>
</mask>
<g mask="url(#mask10_64_2)">
<path d="M480.086 137.299H260.337C256.942 137.299 254.19 140.051 254.19 143.446V370.11C254.19 373.505 256.942 376.257 260.337 376.257H480.086C483.481 376.257 486.233 373.505 486.233 370.11V143.446C486.233 140.051 483.481 137.299 480.086 137.299Z" fill="#F2F2F2"/>
<path d="M469.329 167.265H433.216C429.822 167.265 427.07 170.017 427.07 173.411V217.208C427.07 220.602 429.822 223.354 433.216 223.354H469.329C472.724 223.354 475.476 220.602 475.476 217.208V173.411C475.476 170.017 472.724 167.265 469.329 167.265Z" fill="white"/>
<path d="M451.273 199.477C457.383 199.477 462.337 194.502 462.337 188.365C462.337 182.228 457.383 177.254 451.273 177.254C445.162 177.254 440.208 182.228 440.208 188.365C440.208 194.502 445.162 199.477 451.273 199.477Z" fill="#C7D1D9"/>
<path d="M466.477 202.255H436.068C434.918 202.255 433.985 203.187 433.985 204.338C433.985 205.489 434.918 206.421 436.068 206.421H466.477C467.628 206.421 468.561 205.489 468.561 204.338C468.561 203.187 467.628 202.255 466.477 202.255Z" fill="#C7D1D9"/>
<path d="M460.945 209.199H441.601C440.45 209.199 439.517 210.132 439.517 211.282C439.517 212.433 440.45 213.366 441.601 213.366H460.945C462.096 213.366 463.029 212.433 463.029 211.282C463.029 210.132 462.096 209.199 460.945 209.199Z" fill="#C7D1D9"/>
<path d="M254.19 143.446C254.19 140.051 256.942 137.299 260.337 137.299H480.086C483.481 137.299 486.233 140.051 486.233 143.446V155.739H254.19V143.446Z" fill="#C5CFD6"/>
<path d="M264.179 151.129C265.876 151.129 267.252 149.753 267.252 148.056C267.252 146.358 265.876 144.982 264.179 144.982C262.481 144.982 261.105 146.358 261.105 148.056C261.105 149.753 262.481 151.129 264.179 151.129Z" fill="#F2F2F2"/>
<path d="M273.399 151.129C275.096 151.129 276.472 149.753 276.472 148.056C276.472 146.358 275.096 144.982 273.399 144.982C271.701 144.982 270.325 146.358 270.325 148.056C270.325 149.753 271.701 151.129 273.399 151.129Z" fill="#F2F2F2"/>
<path d="M282.619 151.129C284.316 151.129 285.692 149.753 285.692 148.056C285.692 146.358 284.316 144.982 282.619 144.982C280.922 144.982 279.546 146.358 279.546 148.056C279.546 149.753 280.922 151.129 282.619 151.129Z" fill="#F2F2F2"/>
<mask id="mask11_64_2" style="mask-type:luminance" maskUnits="userSpaceOnUse" x="427" y="228" width="49" height="135">
<path d="M475.476 228.733H427.07V362.427H475.476V228.733Z" fill="white"/>
</mask>
<g mask="url(#mask11_64_2)">
<path d="M469.329 228.733H433.216C429.822 228.733 427.07 231.485 427.07 234.88V356.28C427.07 359.675 429.822 362.427 433.216 362.427H469.329C472.724 362.427 475.476 359.675 475.476 356.28V234.88C475.476 231.485 472.724 228.733 469.329 228.733Z" fill="white"/>
<mask id="mask12_64_2" style="mask-type:luminance" maskUnits="userSpaceOnUse" x="440" y="242" width="22" height="111">
<path d="M461.645 242.563H440.9V352.438H461.645V242.563Z" fill="white"/>
</mask>
<g mask="url(#mask12_64_2)">
<path d="M458.572 242.563H443.973C442.276 242.563 440.9 243.939 440.9 245.637V257.162C440.9 258.859 442.276 260.235 443.973 260.235H458.572C460.269 260.235 461.645 258.859 461.645 257.162V245.637C461.645 243.939 460.269 242.563 458.572 242.563Z" fill="#C7D1D9"/>
<path d="M458.572 266.382H443.973C442.276 266.382 440.9 267.758 440.9 269.456V280.213C440.9 281.91 442.276 283.286 443.973 283.286H458.572C460.269 283.286 461.645 281.91 461.645 280.213V269.456C461.645 267.758 460.269 266.382 458.572 266.382Z" fill="#AFB9C5"/>
<path d="M458.572 289.433H443.973C442.276 289.433 440.9 290.809 440.9 292.506V303.263C440.9 304.961 442.276 306.337 443.973 306.337H458.572C460.269 306.337 461.645 304.961 461.645 303.263V292.506C461.645 290.809 460.269 289.433 458.572 289.433Z" fill="#C7D1D9"/>
<path d="M458.572 335.534H443.973C442.276 335.534 440.9 336.91 440.9 338.608V349.365C440.9 351.062 442.276 352.438 443.973 352.438H458.572C460.269 352.438 461.645 351.062 461.645 349.365V338.608C461.645 336.91 460.269 335.534 458.572 335.534Z" fill="#C7D1D9"/>
<path d="M458.572 312.484H443.973C442.276 312.484 440.9 313.86 440.9 315.557V326.314C440.9 328.011 442.276 329.387 443.973 329.387H458.572C460.269 329.387 461.645 328.011 461.645 326.314V315.557C461.645 313.86 460.269 312.484 458.572 312.484Z" fill="#C5CFD6"/>
</g>
</g>
<mask id="mask13_64_2" style="mask-type:luminance" maskUnits="userSpaceOnUse" x="266" y="171" width="149" height="194">
<path d="M414.008 171.106H266.484V364.732H414.008V171.106Z" fill="white"/>
</mask>
<g mask="url(#mask13_64_2)">
<mask id="mask14_64_2" style="mask-type:luminance" maskUnits="userSpaceOnUse" x="266" y="171" width="149" height="33">
<path d="M414.008 171.106H266.484V203.377H414.008V171.106Z" fill="white"/>
</mask>
<g mask="url(#mask14_64_2)">
<path d="M410.934 171.106H269.557C267.86 171.106 266.484 172.482 266.484 174.18V200.304C266.484 202.001 267.86 203.377 269.557 203.377H410.934C412.632 203.377 414.008 202.001 414.008 200.304V174.18C414.008 172.482 412.632 171.106 410.934 171.106Z" fill="white"/>
<mask id="mask15_64_2" style="mask-type:luminance" maskUnits="userSpaceOnUse" x="273" y="180" width="104" height="14">
<path d="M376.358 180.788H273.399V193.696H376.358V180.788Z" fill="white"/>
</mask>
<g mask="url(#mask15_64_2)">
<path d="M374.053 180.788H275.704C274.431 180.788 273.399 181.82 273.399 183.093V183.323C273.399 184.596 274.431 185.628 275.704 185.628H374.053C375.326 185.628 376.358 184.596 376.358 183.323V183.093C376.358 181.82 375.326 180.788 374.053 180.788Z" fill="#C7D1D9"/>
<path d="M340.204 188.855H275.704C274.431 188.855 273.399 189.887 273.399 191.16V191.391C273.399 192.664 274.431 193.696 275.704 193.696H340.204C341.477 193.696 342.509 192.664 342.509 191.391V191.16C342.509 189.887 341.477 188.855 340.204 188.855Z" fill="#C7D1D9"/>
</g>
<path d="M398.242 192.62C401.212 192.62 403.62 190.212 403.62 187.242C403.62 184.271 401.212 181.863 398.242 181.863C395.271 181.863 392.863 184.271 392.863 187.242C392.863 190.212 395.271 192.62 398.242 192.62Z" fill="#C7D1D9"/>
<path d="M398.242 189.547C399.515 189.547 400.547 188.515 400.547 187.242C400.547 185.969 399.515 184.937 398.242 184.937C396.969 184.937 395.937 185.969 395.937 187.242C395.937 188.515 396.969 189.547 398.242 189.547Z" fill="#F2F2F2"/>
</g>
<mask id="mask16_64_2" style="mask-type:luminance" maskUnits="userSpaceOnUse" x="266" y="209" width="149" height="27">
<path d="M414.008 209.524H266.484V235.648H414.008V209.524Z" fill="white"/>
</mask>
<g mask="url(#mask16_64_2)">
<path d="M410.934 209.524H269.557C267.86 209.524 266.484 210.9 266.484 212.597V232.575C266.484 234.272 267.86 235.648 269.557 235.648H410.934C412.632 235.648 414.008 234.272 414.008 232.575V212.597C414.008 210.9 412.632 209.524 410.934 209.524Z" fill="white"/>
<mask id="mask17_64_2" style="mask-type:luminance" maskUnits="userSpaceOnUse" x="273" y="217" width="104" height="11">
<path d="M376.358 217.361H273.399V227.811H376.358V217.361Z" fill="white"/>
</mask>
<g mask="url(#mask17_64_2)">
<path d="M374.399 217.361H275.358C274.276 217.361 273.399 218.238 273.399 219.321C273.399 220.403 274.276 221.28 275.358 221.28H374.399C375.481 221.28 376.358 220.403 376.358 219.321C376.358 218.238 375.481 217.361 374.399 217.361Z" fill="#C7D1D9"/>
<path d="M340.549 223.892H275.358C274.276 223.892 273.399 224.769 273.399 225.852C273.399 226.934 274.276 227.811 275.358 227.811H340.549C341.632 227.811 342.509 226.934 342.509 225.852C342.509 224.769 341.632 223.892 340.549 223.892Z" fill="#C7D1D9"/>
</g>
<path d="M398.242 227.965C401.212 227.965 403.62 225.557 403.62 222.586C403.62 219.616 401.212 217.208 398.242 217.208C395.271 217.208 392.863 219.616 392.863 222.586C392.863 225.557 395.271 227.965 398.242 227.965Z" fill="#C7D1D9"/>
<path d="M398.242 224.891C399.515 224.891 400.547 223.859 400.547 222.586C400.547 221.313 399.515 220.281 398.242 220.281C396.969 220.281 395.937 221.313 395.937 222.586C395.937 223.859 396.969 224.891 398.242 224.891Z" fill="#F2F2F2"/>
</g>
<mask id="mask18_64_2" style="mask-type:luminance" maskUnits="userSpaceOnUse" x="266" y="241" width="149" height="27">
<path d="M414.008 241.795H266.484V267.919H414.008V241.795Z" fill="white"/>
</mask>
<g mask="url(#mask18_64_2)">
<path d="M410.934 241.795H269.557C267.86 241.795 266.484 243.171 266.484 244.868V264.846C266.484 266.543 267.86 267.919 269.557 267.919H410.934C412.632 267.919 414.008 266.543 414.008 264.846V244.868C414.008 243.171 412.632 241.795 410.934 241.795Z" fill="white"/>
<mask id="mask19_64_2" style="mask-type:luminance" maskUnits="userSpaceOnUse" x="273" y="249" width="104" height="12">
<path d="M376.358 249.632H273.399V260.082H376.358V249.632Z" fill="white"/>
</mask>
<g mask="url(#mask19_64_2)">
<path d="M374.399 249.632H275.358C274.276 249.632 273.399 250.509 273.399 251.591C273.399 252.674 274.276 253.551 275.358 253.551H374.399C375.481 253.551 376.358 252.674 376.358 251.591C376.358 250.509 375.481 249.632 374.399 249.632Z" fill="#C7D1D9"/>
<path d="M340.549 256.163H275.358C274.276 256.163 273.399 257.04 273.399 258.122C273.399 259.205 274.276 260.082 275.358 260.082H340.549C341.632 260.082 342.509 259.205 342.509 258.122C342.509 257.04 341.632 256.163 340.549 256.163Z" fill="#C7D1D9"/>
</g>
<path d="M398.242 260.235C401.212 260.235 403.62 257.827 403.62 254.857C403.62 251.886 401.212 249.478 398.242 249.478C395.271 249.478 392.863 251.886 392.863 254.857C392.863 257.827 395.271 260.235 398.242 260.235Z" fill="#C7D1D9"/>
<path d="M398.242 257.162C399.515 257.162 400.547 256.13 400.547 254.857C400.547 253.584 399.515 252.552 398.242 252.552C396.969 252.552 395.937 253.584 395.937 254.857C395.937 256.13 396.969 257.162 398.242 257.162Z" fill="#AFB9C5"/>
</g>
<mask id="mask20_64_2" style="mask-type:luminance" maskUnits="userSpaceOnUse" x="266" y="338" width="149" height="27">
<path d="M414.008 338.608H266.484V364.732H414.008V338.608Z" fill="white"/>
</mask>
<g mask="url(#mask20_64_2)">
<path d="M410.934 338.608H269.557C267.86 338.608 266.484 339.984 266.484 341.681V361.658C266.484 363.356 267.86 364.732 269.557 364.732H410.934C412.632 364.732 414.008 363.356 414.008 361.658V341.681C414.008 339.984 412.632 338.608 410.934 338.608Z" fill="white"/>
<mask id="mask21_64_2" style="mask-type:luminance" maskUnits="userSpaceOnUse" x="273" y="346" width="104" height="11">
<path d="M376.358 346.445H273.399V356.894H376.358V346.445Z" fill="white"/>
</mask>
<g mask="url(#mask21_64_2)">
<path d="M374.399 346.445H275.358C274.276 346.445 273.399 347.322 273.399 348.404C273.399 349.486 274.276 350.363 275.358 350.363H374.399C375.481 350.363 376.358 349.486 376.358 348.404C376.358 347.322 375.481 346.445 374.399 346.445Z" fill="#C7D1D9"/>
<path d="M340.549 352.976H275.358C274.276 352.976 273.399 353.853 273.399 354.935C273.399 356.017 274.276 356.894 275.358 356.894H340.549C341.632 356.894 342.509 356.017 342.509 354.935C342.509 353.853 341.632 352.976 340.549 352.976Z" fill="#C7D1D9"/>
</g>
<path d="M398.242 357.048C401.212 357.048 403.62 354.64 403.62 351.67C403.62 348.699 401.212 346.291 398.242 346.291C395.271 346.291 392.863 348.699 392.863 351.67C392.863 354.64 395.271 357.048 398.242 357.048Z" fill="#C7D1D9"/>
<path d="M398.242 353.975C399.515 353.975 400.547 352.943 400.547 351.67C400.547 350.397 399.515 349.365 398.242 349.365C396.969 349.365 395.937 350.397 395.937 351.67C395.937 352.943 396.969 353.975 398.242 353.975Z" fill="#F2F2F2"/>
</g>
<mask id="mask22_64_2" style="mask-type:luminance" maskUnits="userSpaceOnUse" x="266" y="306" width="149" height="27">
<path d="M414.008 306.337H266.484V332.461H414.008V306.337Z" fill="white"/>
</mask>
<g mask="url(#mask22_64_2)">
<path d="M410.934 306.337H269.557C267.86 306.337 266.484 307.713 266.484 309.41V329.387C266.484 331.085 267.86 332.461 269.557 332.461H410.934C412.632 332.461 414.008 331.085 414.008 329.387V309.41C414.008 307.713 412.632 306.337 410.934 306.337Z" fill="white"/>
<mask id="mask23_64_2" style="mask-type:luminance" maskUnits="userSpaceOnUse" x="273" y="314" width="104" height="11">
<path d="M376.358 314.174H273.399V324.624H376.358V314.174Z" fill="white"/>
</mask>
<g mask="url(#mask23_64_2)">
<path d="M374.399 314.174H275.358C274.276 314.174 273.399 315.051 273.399 316.133C273.399 317.215 274.276 318.093 275.358 318.093H374.399C375.481 318.093 376.358 317.215 376.358 316.133C376.358 315.051 375.481 314.174 374.399 314.174Z" fill="#C7D1D9"/>
<path d="M340.549 320.705H275.358C274.276 320.705 273.399 321.582 273.399 322.664C273.399 323.746 274.276 324.624 275.358 324.624H340.549C341.632 324.624 342.509 323.746 342.509 322.664C342.509 321.582 341.632 320.705 340.549 320.705Z" fill="#C7D1D9"/>
</g>
<path d="M398.242 324.777C401.212 324.777 403.62 322.369 403.62 319.399C403.62 316.428 401.212 314.02 398.242 314.02C395.271 314.02 392.863 316.428 392.863 319.399C392.863 322.369 395.271 324.777 398.242 324.777Z" fill="#C7D1D9"/>
<path d="M398.242 321.704C399.515 321.704 400.547 320.672 400.547 319.399C400.547 318.126 399.515 317.094 398.242 317.094C396.969 317.094 395.937 318.126 395.937 319.399C395.937 320.672 396.969 321.704 398.242 321.704Z" fill="#F2F2F2"/>
</g>
<mask id="mask24_64_2" style="mask-type:luminance" maskUnits="userSpaceOnUse" x="266" y="274" width="149" height="27">
<path d="M414.008 274.066H266.484V300.19H414.008V274.066Z" fill="white"/>
</mask>
<g mask="url(#mask24_64_2)">
<path d="M410.934 274.066H269.557C267.86 274.066 266.484 275.442 266.484 277.139V297.116C266.484 298.814 267.86 300.19 269.557 300.19H410.934C412.632 300.19 414.008 298.814 414.008 297.116V277.139C414.008 275.442 412.632 274.066 410.934 274.066Z" fill="white"/>
<mask id="mask25_64_2" style="mask-type:luminance" maskUnits="userSpaceOnUse" x="273" y="281" width="104" height="12">
<path d="M376.358 281.903H273.399V292.353H376.358V281.903Z" fill="white"/>
</mask>
<g mask="url(#mask25_64_2)">
<path d="M374.399 281.903H275.358C274.276 281.903 273.399 282.78 273.399 283.862C273.399 284.944 274.276 285.822 275.358 285.822H374.399C375.481 285.822 376.358 284.944 376.358 283.862C376.358 282.78 375.481 281.903 374.399 281.903Z" fill="#C7D1D9"/>
<path d="M340.549 288.434H275.358C274.276 288.434 273.399 289.311 273.399 290.393C273.399 291.475 274.276 292.353 275.358 292.353H340.549C341.632 292.353 342.509 291.475 342.509 290.393C342.509 289.311 341.632 288.434 340.549 288.434Z" fill="#C7D1D9"/>
</g>
<path d="M398.242 292.506C401.212 292.506 403.62 290.098 403.62 287.128C403.62 284.157 401.212 281.749 398.242 281.749C395.271 281.749 392.863 284.157 392.863 287.128C392.863 290.098 395.271 292.506 398.242 292.506Z" fill="#C7D1D9"/>
<path d="M398.242 289.433C399.515 289.433 400.547 288.401 400.547 287.128C400.547 285.855 399.515 284.823 398.242 284.823C396.969 284.823 395.937 285.855 395.937 287.128C395.937 288.401 396.969 289.433 398.242 289.433Z" fill="#F2F2F2"/>
</g>
</g>
</g>
<path fill-rule="evenodd" clip-rule="evenodd" d="M52.0474 314.957C64.9135 336.65 79.8979 357.655 88.8969 381.373C88.5342 378.577 88.1501 375.784 87.7198 372.996C85.4362 358.213 82.5987 343.537 79.6159 328.879C78.0977 321.416 76.4918 313.981 74.8445 306.546C73.9578 302.553 73.0826 298.556 72.179 294.567C71.9601 293.6 71.7718 291.912 71.4975 290.201C80.2429 319.045 88.6764 347.909 94.8455 377.445C95.6546 381.321 96.3438 385.191 96.9085 389.054C97.1014 388.173 97.2912 387.291 97.4994 386.412C99.995 375.878 103.739 365.427 108.198 355.577C110.329 350.867 112.777 346.26 115.659 341.966C117.457 339.29 121.696 336.109 123.335 333.368C114.368 349.898 111.13 370.58 105.952 388.551C104.689 392.936 103.417 397.314 102.171 401.699C109.979 385.962 122.094 373.032 138.937 367.429C118.548 380.968 106.319 404.678 98.0787 428.927C98.0518 429.214 98.0196 429.502 97.9919 429.79C100.417 425.165 103.471 420.981 107.611 418.051C116.472 411.778 126.3 413.606 134.896 418.987C128.15 414.677 115.958 418.601 110.283 422.981C106.219 426.117 102.747 430.323 99.7315 434.428C99.0092 435.411 98.0234 436.559 96.9815 437.784C95.5217 447.309 93.1421 456.769 89.7736 466.154C90.3299 463.461 89.9273 459.152 90.0817 457.144C90.0986 456.927 90.1124 456.709 90.1286 456.492C89.6169 458.548 89.122 460.579 88.6456 462.578C89.5923 458.764 90.1071 454.782 90.5089 450.76C90.6126 449.031 90.7133 447.302 90.8201 445.573C90.7863 442.292 90.6518 438.998 90.4244 435.699C89.6176 432.493 88.7148 429.469 87.9703 426.954C85.2841 417.879 81.3455 409.184 76.4972 401.073C72.0745 393.672 66.7798 386.967 60.6676 380.903C57.3729 377.635 53.9245 374.524 50.5245 371.368C49.2951 370.227 47.0977 367.422 45.1975 365.96C59.0379 373.629 73.2839 381.926 83.3809 394.282C82.1969 389.714 80.9114 385.21 79.5514 380.796C72.6516 358.403 63.9392 335.196 52.0474 314.957Z" fill="#C7D1D9"/>
<path d="M94.3722 483.058C110.073 483.058 122.801 472.91 122.801 460.392C122.801 447.873 110.073 437.725 94.3722 437.725C78.6713 437.725 65.9431 447.873 65.9431 460.392C65.9431 472.91 78.6713 483.058 94.3722 483.058Z" fill="#C5CFD6"/>
<path d="M550.775 115.401C550.775 114.34 549.915 113.48 548.854 113.48C547.793 113.48 546.933 114.34 546.933 115.401V128.463C546.933 129.524 547.793 130.384 548.854 130.384C549.915 130.384 550.775 129.524 550.775 128.463V115.401Z" fill="#C7D1D9"/>
<path d="M560.763 103.875C560.763 102.814 559.903 101.954 558.842 101.954C557.781 101.954 556.921 102.814 556.921 103.875V128.463C556.921 129.524 557.781 130.384 558.842 130.384C559.903 130.384 560.763 129.524 560.763 128.463V103.875Z" fill="#C7D1D9"/>
<path d="M570.752 98.4968C570.752 97.436 569.892 96.576 568.831 96.576C567.77 96.576 566.91 97.436 566.91 98.4968V128.463C566.91 129.524 567.77 130.384 568.831 130.384C569.892 130.384 570.752 129.524 570.752 128.463V98.4968Z" fill="#C7D1D9"/>
<path d="M579.972 103.875C579.972 102.814 579.112 101.954 578.051 101.954C576.99 101.954 576.13 102.814 576.13 103.875V128.463C576.13 129.524 576.99 130.384 578.051 130.384C579.112 130.384 579.972 129.524 579.972 128.463V103.875Z" fill="#C7D1D9"/>
<path d="M589.961 93.1184C589.961 92.0575 589.101 91.1975 588.04 91.1975C586.979 91.1975 586.119 92.0575 586.119 93.1184V128.463C586.119 129.524 586.979 130.384 588.04 130.384C589.101 130.384 589.961 129.524 589.961 128.463V93.1184Z" fill="#C5CFD6"/>
<path fill-rule="evenodd" clip-rule="evenodd" d="M16 279.399C16 271.818 22.2252 265.614 29.8304 265.614V279.399L20.3788 289.433C17.6904 286.98 16 283.381 16 279.399Z" fill="#F2F2F2"/>
<path fill-rule="evenodd" clip-rule="evenodd" d="M29.5115 278.676H43.6608C43.6608 282.286 42.1686 285.67 39.8098 288.127C37.2158 290.816 33.5216 292.506 29.5115 292.506C25.8181 292.506 22.4365 291.048 19.8418 288.742L29.5115 278.676Z" fill="#AFB9C5"/>
<path fill-rule="evenodd" clip-rule="evenodd" d="M43.6608 279.444C43.6608 271.839 37.4356 265.614 29.8304 265.614V279.444H43.6608ZM22.9152 265.614L28.4473 278.061L16 272.529C17.2309 269.303 19.9947 266.845 22.9152 265.614Z" fill="#C5CFD6"/>
<path fill-rule="evenodd" clip-rule="evenodd" d="M607.737 313.898C606.402 315.283 604.512 316.152 602.409 316.152C598.369 316.152 595.094 312.961 595.094 309.026C595.094 305.09 598.369 301.899 602.409 301.899V288.665C590.916 288.665 581.509 297.829 581.509 309.026C581.509 320.222 590.916 329.387 602.409 329.387C608.447 329.387 613.903 326.899 617.621 322.941L607.737 313.898Z" fill="#F2F2F2"/>
<path fill-rule="evenodd" clip-rule="evenodd" d="M602.254 288.665V302.149C606.264 302.149 609.515 305.4 609.515 309.41H623C623 298.002 613.662 288.665 602.254 288.665Z" fill="#AFB9C5"/>
<path fill-rule="evenodd" clip-rule="evenodd" d="M608.982 309.41C608.982 311.701 607.852 313.737 606.096 315.051L614.732 325.546C619.76 321.788 623 315.965 623 309.41H608.982Z" fill="#C5CFD6"/>
<path fill-rule="evenodd" clip-rule="evenodd" d="M505.344 99.9613C504.293 101.032 502.805 101.705 501.15 101.705C497.97 101.705 495.391 99.2367 495.391 96.1918C495.391 93.1468 497.97 90.6788 501.15 90.6788V80.4405C492.102 80.4405 484.696 87.5301 484.696 96.1918C484.696 104.853 492.102 111.943 501.15 111.943C505.902 111.943 510.197 110.018 513.125 106.956L505.344 99.9613Z" fill="#F2F2F2"/>
<path fill-rule="evenodd" clip-rule="evenodd" d="M500.832 80.4405V90.9285C503.951 90.9285 506.479 93.4572 506.479 96.5759H516.967C516.967 87.7031 509.705 80.4405 500.832 80.4405Z" fill="#AFB9C5"/>
<path fill-rule="evenodd" clip-rule="evenodd" d="M506.772 96.5759C506.772 98.3209 505.951 99.8722 504.674 100.874L510.955 108.87C514.611 106.007 516.967 101.57 516.967 96.5759H506.772Z" fill="#C5CFD6"/>
<path fill-rule="evenodd" clip-rule="evenodd" d="M74.4004 98.1019C74.3973 98.1096 74.3943 98.1173 74.3896 98.1265C74.3943 98.1188 74.4004 98.0881 74.4004 98.1019Z" fill="#C5CFD6"/>
<path fill-rule="evenodd" clip-rule="evenodd" d="M74.3934 98.1134C74.3934 98.115 74.3918 98.118 74.3918 98.1211C74.3918 98.1134 74.4057 98.0904 74.3934 98.1134Z" fill="#C5CFD6"/>
<path fill-rule="evenodd" clip-rule="evenodd" d="M74.4464 97.9836C74.4357 98.0143 74.4219 98.0435 74.4096 98.0742C74.4157 98.0589 74.4219 98.0466 74.428 98.0312C74.2682 98.4308 74.3696 98.1711 74.4464 97.9836Z" fill="#C5CFD6"/>
<path fill-rule="evenodd" clip-rule="evenodd" d="M74.4118 98.0765C74.4057 98.0904 74.3995 98.1057 74.3934 98.1196C74.3488 98.2056 74.4118 98.0765 74.4118 98.0765Z" fill="#C5CFD6"/>
<path fill-rule="evenodd" clip-rule="evenodd" d="M74.3873 98.125C74.3781 98.1434 74.4304 98.0543 74.3873 98.125V98.125Z" fill="#C5CFD6"/>
<path fill-rule="evenodd" clip-rule="evenodd" d="M74.3933 98.1151L74.3973 98.1111C74.3953 98.1131 74.3953 98.1151 74.3933 98.1151Z" fill="#C5CFD6"/>
<path d="M104.361 62H44.4291C42.7317 62 41.3557 63.376 41.3557 65.0734V102.723C41.3557 104.42 42.7317 105.796 44.4291 105.796H104.361C106.058 105.796 107.434 104.42 107.434 102.723V65.0734C107.434 63.376 106.058 62 104.361 62Z" fill="#C7D1D9"/>
<path fill-rule="evenodd" clip-rule="evenodd" d="M66.0967 74.2937L46.7341 105.796H85.4592L66.0967 74.2937Z" fill="#AFB9C5"/>
<path fill-rule="evenodd" clip-rule="evenodd" d="M85.1136 82.6943L68.1714 105.796H102.056L85.1136 82.6943Z" fill="#C5CFD6"/>
<path d="M92.8356 82.7456C96.2304 82.7456 98.9824 79.9935 98.9824 76.5987C98.9824 73.2039 96.2304 70.4519 92.8356 70.4519C89.4408 70.4519 86.6887 73.2039 86.6887 76.5987C86.6887 79.9935 89.4408 82.7456 92.8356 82.7456Z" fill="white"/>
<path fill-rule="evenodd" clip-rule="evenodd" d="M519.267 392.382C519.27 392.389 519.273 392.397 519.278 392.406C519.273 392.399 519.267 392.368 519.267 392.382Z" fill="#C5CFD6"/>
<path fill-rule="evenodd" clip-rule="evenodd" d="M519.274 392.393C519.274 392.395 519.275 392.398 519.275 392.401C519.275 392.393 519.261 392.37 519.274 392.393Z" fill="#C5CFD6"/>
<path fill-rule="evenodd" clip-rule="evenodd" d="M519.221 392.263C519.231 392.294 519.245 392.323 519.258 392.354C519.251 392.339 519.245 392.326 519.239 392.311C519.399 392.711 519.298 392.451 519.221 392.263Z" fill="#C5CFD6"/>
<path fill-rule="evenodd" clip-rule="evenodd" d="M519.255 392.356C519.262 392.37 519.268 392.385 519.274 392.399C519.318 392.485 519.255 392.356 519.255 392.356Z" fill="#C5CFD6"/>
<path fill-rule="evenodd" clip-rule="evenodd" d="M519.28 392.405C519.237 392.334 519.289 392.423 519.28 392.405V392.405Z" fill="#C5CFD6"/>
<path fill-rule="evenodd" clip-rule="evenodd" d="M519.275 392.395L519.271 392.391C519.273 392.393 519.273 392.395 519.275 392.395Z" fill="#C5CFD6"/>
<path d="M467.792 333.229H570.752C572.449 333.229 573.825 334.605 573.825 336.303V402.381C573.825 404.078 572.449 405.454 570.752 405.454H467.792C466.095 405.454 464.719 404.078 464.719 402.381V336.303C464.719 334.605 466.095 333.229 467.792 333.229Z" fill="#C7D1D9"/>
<path fill-rule="evenodd" clip-rule="evenodd" d="M533.313 353.975L564.858 405.454H501.768L533.313 353.975Z" fill="#AFB9C5"/>
<path fill-rule="evenodd" clip-rule="evenodd" d="M500.789 367.764L528.676 405.454H472.901L500.789 367.764Z" fill="#C5CFD6"/>
<path d="M488.922 367.805C483.193 367.805 478.549 363.161 478.549 357.432C478.549 351.704 483.193 347.059 488.922 347.059C494.651 347.059 499.295 351.704 499.295 357.432C499.295 363.161 494.651 367.805 488.922 367.805Z" fill="white"/>
<path fill-rule="evenodd" clip-rule="evenodd" d="M336.354 233.531C341.329 236.53 346.218 237.979 348.513 237.387C354.267 235.904 354.796 214.853 350.344 206.554C345.891 198.254 323.002 194.637 321.848 211.08C321.448 216.787 323.844 221.88 327.385 226.036L321.036 255.625H339.477L336.354 233.531Z" fill="#D4A181"/>
<path fill-rule="evenodd" clip-rule="evenodd" d="M352.539 198.767C352.539 202.871 349.322 206.223 345.272 206.44C342.686 207.238 339.278 207.799 335.514 207.965C336.565 210.428 337.172 213.331 337.172 216.439C337.172 216.631 337.17 216.823 337.165 217.013C336.399 215.736 335.139 214.903 333.714 214.903C331.38 214.903 329.488 217.139 329.488 219.897C329.488 222.655 331.38 224.891 333.714 224.891C334.465 224.891 335.169 224.66 335.78 224.255C333.88 229.216 330.226 232.575 326.031 232.575C322.019 232.575 318.502 229.503 316.54 224.895C313.182 226.8 308.687 227.965 303.749 227.965C293.352 227.965 284.924 222.805 284.924 216.439C284.924 210.074 293.352 204.914 303.749 204.914C308.687 204.914 313.182 206.078 316.54 207.984C317.345 206.092 318.412 204.46 319.668 203.193C320.735 200.947 327.034 199.038 334.706 198.77C335.545 198.741 336.368 198.732 337.172 198.743C337.185 194.51 340.62 191.084 344.855 191.084C349.099 191.084 352.539 194.524 352.539 198.767Z" fill="#181658"/>
<path fill-rule="evenodd" clip-rule="evenodd" d="M314.89 319.399L343.035 416.386L356.273 489.205H369.561L356.297 319.399H314.89Z" fill="#D4A181"/>
<path fill-rule="evenodd" clip-rule="evenodd" d="M314.89 319.399L343.035 416.386L356.273 489.205H369.561L356.297 319.399H314.89Z" fill="black" fill-opacity="0.1"/>
<path fill-rule="evenodd" clip-rule="evenodd" d="M302.241 319.399C304.205 369.783 303.431 397.264 302.991 401.842C302.552 406.419 300.056 437.077 283.052 490.742H296.872C319.391 439.26 327.252 408.602 329.834 401.842C332.417 395.081 340.045 367.6 351.181 319.399H302.241Z" fill="#D4A181"/>
<path fill-rule="evenodd" clip-rule="evenodd" d="M314.286 319.399C321.607 352.772 334.269 406.045 352.273 479.216H371.707C373.142 404.113 367.036 354.682 356.462 319.399H314.286Z" fill="#1820BF"/>
<path fill-rule="evenodd" clip-rule="evenodd" d="M302.143 319.399C304.066 369.783 299.082 419.421 283.641 480.001H304.376C326.937 429.287 343.106 379.894 354.157 319.399H302.143Z" fill="#2B44FF"/>
<path fill-rule="evenodd" clip-rule="evenodd" d="M281.082 500.73L281.785 489.396C281.816 488.905 282.294 488.568 282.776 488.67C289.436 490.086 298.621 486.9 298.621 486.9C307.865 493.448 321.191 496.453 325.883 497.353C326.792 497.527 327.374 498.443 327.122 499.332L326.072 503.035H298.621H282.607L281.082 500.73Z" fill="#191847"/>
<path fill-rule="evenodd" clip-rule="evenodd" d="M353.308 500.73L354.011 489.396C354.041 488.905 354.519 488.568 355.002 488.67C361.661 490.086 370.846 486.9 370.846 486.9C380.09 493.448 393.416 496.453 398.109 497.353C399.017 497.527 399.599 498.443 399.347 499.332L398.297 503.035H370.846H354.833L353.308 500.73Z" fill="#191847"/>
<path fill-rule="evenodd" clip-rule="evenodd" d="M266.789 353.904C269.041 349.336 280.291 290.547 280.291 290.547L297.116 290.61C297.116 290.61 277.894 352.886 276.709 355.823C275.169 359.639 277.784 365.183 279.558 368.942C279.832 369.524 280.086 370.063 280.302 370.546C277.841 371.647 276.659 370.316 275.413 368.913C274.005 367.328 272.516 365.651 269.01 367.283C267.655 367.913 266.373 368.657 265.121 369.386C260.795 371.9 256.821 374.21 251.415 370.874C250.558 370.345 249.619 368.354 251.888 366.799C257.542 362.922 265.689 356.138 266.789 353.904ZM408.491 330.997L386.726 309.764L379.496 322.272L402.13 335.617C407.805 344.557 411.138 348.42 412.13 347.206C412.965 346.181 412.582 345.059 412.23 344.025C411.954 343.22 411.698 342.469 412.051 341.859C412.855 340.467 417.399 341.264 421.679 342.205C425.958 343.146 424.968 341.043 424.058 339.946C420.014 336.681 414.824 333.699 408.491 330.997Z" fill="#D4A181"/>
<path fill-rule="evenodd" clip-rule="evenodd" d="M331.559 242.818L338.203 241.679C348.67 278.677 402.446 303.896 405.747 317.726C406.958 322.799 403.307 325.363 405.193 326.907L396.557 333.229C395.095 331.523 391.973 334.644 385.456 332.461C378.939 330.278 331.559 286.627 331.559 242.818Z" fill="#F29F04"/>
<path fill-rule="evenodd" clip-rule="evenodd" d="M319.743 235.094C318.049 234.976 316.581 236.252 316.462 237.946L316.148 242.446C303.644 252.069 272.653 280.822 264.577 334.349C263.729 339.971 265.263 342.983 266.489 345.389C267.327 347.035 268.022 348.398 267.71 350.12L279.013 353.239C279.013 351.969 280.437 351.001 282.275 349.753C284.947 347.939 288.493 345.532 289.804 340.734C291.047 336.186 292.867 330.505 295.041 324.185C295.246 332.555 296.833 340.252 300.291 346.628C308.918 362.533 358.77 345.089 363.978 328.863C366.758 320.205 362.814 312.936 357.598 303.321C350.977 291.117 342.307 275.135 342.736 247.737L343.289 239.822C343.407 238.128 342.131 236.66 340.438 236.541L319.743 235.094Z" fill="#F29F04"/>
</g>
<defs>
<clipPath id="clip0_64_2">
<rect width="607" height="566" fill="white"/>
</clipPath>
</defs>
</svg>
