<svg width="456" height="331" viewBox="0 0 456 331" fill="none" xmlns="http://www.w3.org/2000/svg">
<path fill-rule="evenodd" clip-rule="evenodd" d="M399.025 91.8081C398.746 91.6057 398.086 91.5336 397.778 91.4731C396.5 91.2211 395.183 91.1115 393.881 91.1115C389.862 91.1173 385.78 91.5117 381.828 92.1945C379.32 92.6275 376.287 94.0853 373.792 93.2936C369.444 91.9142 365.051 91.9817 360.926 93.951C357.155 95.7519 354.292 99.1726 352.622 102.868C352.37 103.426 351.347 105.479 351.058 106.863C350.934 107.146 350.815 107.431 350.708 107.72C350.404 108.541 350.131 109.377 349.877 110.214C349.769 110.571 349.497 111.36 349.82 111.512C349.303 112.466 348.845 113.449 348.463 114.463C347.354 117.414 346.14 120.651 345.75 123.778C345.606 124.936 345.6 126.101 345.735 127.262C345.801 127.835 345.773 128.989 346.162 129.424C346.988 130.35 347.411 129.054 347.318 128.437C346.608 123.735 347.98 119.319 349.606 114.899C350.657 112.041 352.385 109.426 354.32 107.058C355.887 105.141 357.567 103.632 359.714 102.361C362.34 100.807 365.147 99.5503 367.928 98.2897C369.757 97.4605 371.589 96.6537 373.469 95.9393C373.887 95.7801 374.545 95.3724 375.009 95.3713C375.989 95.3678 377.378 96.0909 378.325 96.3596C381.44 97.2454 384.595 98.3785 387.814 98.8306C389.879 99.1213 391.813 98.7943 393.745 98.1063C393.942 98.0366 394.272 97.8561 394.678 97.5983C396.111 97.0464 397.467 96.3527 398.648 95.3517C399.329 94.775 399.946 94.0294 400.509 93.3472C400.678 93.1436 400.752 92.9095 400.754 92.6875C400.882 92.6206 400.967 92.5428 400.986 92.4517C401.126 91.7804 399.846 91.7683 399.025 91.8081Z" fill="#89C5CC"/>
<path fill-rule="evenodd" clip-rule="evenodd" d="M393.595 110.484C391.806 110.097 389.832 110.126 388.011 110.158C378.242 110.29 368.65 114.873 362.407 122.195C357.092 128.429 355.631 136.179 354.581 144.014C354.477 144.792 354.433 145.564 354.374 146.344C354.361 146.511 354.342 146.661 354.322 146.801C353.909 147.167 353.693 147.594 353.937 148.062C353.027 150.035 352.258 152.057 351.598 154.143C349.655 160.283 347.678 166.54 348.895 172.996C349.18 169.443 349.779 165.81 350.494 162.315C350.535 162.114 350.58 161.915 350.626 161.717C350.631 161.696 350.635 161.676 350.64 161.655C350.893 160.585 351.223 159.547 351.623 158.525C351.627 158.513 351.631 158.502 351.635 158.491C351.688 158.357 351.744 158.223 351.8 158.089C351.915 157.813 352.033 157.536 352.157 157.261C352.2 157.167 352.24 157.073 352.28 156.978C352.863 155.561 353.109 153.966 353.631 152.501C353.756 152.168 353.887 151.836 354.023 151.506C354.031 151.487 354.04 151.467 354.048 151.447C354.418 150.559 354.827 149.682 355.259 148.813C355.494 148.639 355.619 148.204 355.821 147.81C355.863 147.733 356.191 147.214 356.288 146.916C356.543 146.428 356.797 145.94 357.053 145.453C357.045 145.456 357.038 145.458 357.03 145.461C357.286 144.994 357.543 144.528 357.799 144.065C357.855 143.962 357.912 143.86 357.968 143.758C358.06 143.596 358.152 143.433 358.243 143.271C359.099 141.754 360.006 140.267 360.948 138.799C361.284 138.274 362.088 137.523 362.242 136.934C362.247 136.912 362.249 136.892 362.252 136.871C364.296 134.026 366.65 131.401 369.473 129.322C369.132 129.687 368.406 130.928 368.214 131.173C367.628 131.925 366.991 132.625 366.351 133.333C365.206 134.602 364.088 135.911 363.095 137.296C361.278 139.827 359.711 142.492 358.229 145.21C358.215 145.226 358.2 145.241 358.187 145.258C357.442 146.167 356.974 147.542 356.437 148.582C358.559 147.609 360.904 146.974 363.081 146.11C365.252 145.248 367.364 144.288 369.403 143.161C372.113 141.663 374.924 139.973 377.485 138.059C380.419 136.255 382.885 133.772 385.061 131.168C387.637 128.085 389.997 124.976 391.456 121.233C392.173 119.394 392.737 117.477 393.072 115.536C393.086 115.452 393.105 115.36 393.125 115.265C393.467 114.595 393.773 113.91 394.03 113.209C394.438 112.097 395.4 110.875 393.595 110.484Z" fill="#56919C"/>
<path fill-rule="evenodd" clip-rule="evenodd" d="M409.814 172.272C408.773 169.91 406.568 168.083 404.401 166.73C395.94 161.443 386.021 159.621 376.22 160.017C370.85 160.235 365.437 161.402 360.335 162.952C357.39 163.846 354.53 165.017 351.968 166.707C350.239 167.847 348.698 169.197 347.285 170.701C345.563 172.534 343.901 174.463 342.423 176.496C341.841 177.297 338.579 181.438 339.921 182.38C339.844 182.485 339.777 182.588 339.727 182.687C333.758 185.53 328.433 189.906 323.423 194.079C319.064 197.711 314.844 201.483 311.02 205.668C305.985 211.179 301.284 217.028 296.981 223.119C296.056 224.428 295.155 225.753 294.261 227.084C293.498 228.219 292.734 229.354 291.972 230.489C291.118 231.762 289.955 233.115 289.354 234.534C288.831 235.771 289.909 236.208 290.651 235.115C291.547 233.796 292.385 232.437 293.289 231.121C294.489 229.375 295.691 227.631 296.9 225.891C305.299 213.806 315.263 202.953 326.843 193.817C331.53 190.119 336.307 186.832 341.578 183.996C346.213 181.503 351.218 179.414 356.123 177.62C360.889 175.876 365.711 174.277 370.749 173.424C374.837 172.732 379 172.505 383.155 172.471C388.434 172.426 393.668 172.435 398.911 173.146C401.636 173.515 404.339 174.011 407.057 174.429C407.546 174.504 408.059 174.602 408.55 174.642C410.187 174.775 410.381 173.558 409.814 172.272Z" fill="#C1DEE2"/>
<path fill-rule="evenodd" clip-rule="evenodd" d="M86.2645 124.382C85.4756 125 84.7018 125.632 83.9469 126.29C83.3714 126.791 82.3536 127.391 82.1472 128.15C81.9321 128.939 82.6102 129.678 83.1454 130.154C85.9768 132.678 89.1651 134.384 93.0887 134.667C99.1297 135.104 104.388 133.61 109.629 130.67C113.311 128.604 115.749 125.55 116.282 121.425C120.667 123.19 124.908 125.623 128.512 128.608C130.29 130.082 131.821 131.714 133.238 133.523C134.145 134.682 135.023 135.86 135.838 137.083C136.192 137.614 136.552 138.556 137.136 138.863C137.822 139.222 138.651 138.658 138.617 137.92C138.589 137.305 137.903 136.592 137.583 136.089C137.051 135.254 136.51 134.425 135.941 133.613C135.02 132.299 134.068 131.002 133.03 129.772C130.697 127.009 127.729 124.726 124.651 122.779C118.748 119.044 112.269 116.691 105.087 116.491C100.67 116.369 96.9545 117.83 93.1775 120.013C90.8259 121.371 88.3981 122.708 86.2645 124.382Z" fill="#C7D1D9"/>
<path fill-rule="evenodd" clip-rule="evenodd" d="M133.738 124.562C129.146 119.824 124.539 115.147 119.41 110.975C116.387 108.517 113.201 106.282 110.082 103.951C110.441 104.267 110.794 104.592 111.139 104.925C110.165 104.263 108.89 103.888 107.858 103.275C106.706 102.591 105.605 101.809 104.525 101.02C102.417 99.4811 100.341 97.9132 98.1748 96.4548C95.7603 94.8298 93.2588 93.3282 90.8034 91.7643C88.7199 90.4368 86.6111 88.9842 84.3818 87.8995C83.1668 87.3079 81.9489 86.6073 80.7292 85.9902C80.321 85.7838 76.1783 83.1629 76.1887 83.1554C76.4176 82.9824 78.5022 83.9639 78.8246 84.0959C79.7662 84.4811 80.667 84.9425 81.5723 85.4015C81.0758 84.4194 80.682 83.3878 80.468 82.3014C80.4017 81.9663 79.8717 79.5254 80.1434 79.3206C80.2783 79.2186 81.6 83.585 81.668 84.0048C81.7228 84.3462 81.7147 84.8369 81.826 85.1599C82.006 85.6817 81.9973 85.5243 82.3935 85.8178C83.1195 86.3564 84.0836 86.6932 84.8696 87.143C85.2935 87.38 86.6059 88.3205 87.3965 88.5886C89.7885 89.7523 92.2128 91.5429 94.4854 93.03C93.8891 91.9067 93.4347 90.7321 93.1037 89.5015C93.0253 89.2097 92.1758 86.5882 92.3817 86.4325C92.6135 86.2578 94.2322 90.261 94.3279 90.6398C94.5061 91.3439 94.543 92.127 94.7662 92.8121C95.0107 93.564 95.7747 93.8304 96.4627 94.2687C98.9954 95.881 101.441 97.5937 103.846 99.3854C106.469 94.7098 103.444 89.0638 100.894 85.1403C99.0565 82.3129 96.5821 79.8887 93.9692 77.7729C90.4828 74.9485 86.4935 72.692 82.5094 70.6282C77.8667 68.2229 72.8492 66.7328 67.6328 66.0449C64.9041 65.6845 62.1131 65.6949 59.3573 65.8102C58.0108 65.8667 56.7185 66.0449 55.4285 66.4849C54.8467 66.6838 54.285 66.9335 53.7372 67.2138C53.3214 67.4266 52.3146 67.6515 52.0752 67.9686C50.106 70.537 49.0986 73.0962 49.2525 76.3232C49.3978 79.3783 50.3609 82.4352 51.6676 85.1604C53.123 88.1948 54.9949 90.9489 57.4428 93.2601C59.3105 95.0241 61.3992 96.5586 63.4734 98.0735C70.8511 103.461 80.2056 108.146 89.7614 106.943C92.8546 106.553 95.7967 105.47 98.5462 103.997C99.1937 103.65 99.8379 103.299 100.449 102.889C100.861 102.612 101.964 101.368 102.379 101.322C102.947 101.261 104.171 102.419 104.705 102.771C108.758 105.452 112.705 108.278 116.569 111.218C120.68 114.347 124.59 117.688 128.384 121.186C129.997 122.674 131.601 124.165 133.169 125.703C133.533 126.061 134.425 127.379 135.086 127.438C135.505 127.476 135.787 127.118 135.727 126.73C135.623 126.056 134.208 125.047 133.738 124.562Z" fill="#C1DEE2"/>
<mask id="mask0_64_4673" style="mask-type:luminance" maskUnits="userSpaceOnUse" x="85" y="29" width="111" height="158">
<path d="M195.707 29.9861H85.5662V186.836H195.707V29.9861Z" fill="white"/>
</mask>
<g mask="url(#mask0_64_4673)">
<path fill-rule="evenodd" clip-rule="evenodd" d="M92.5668 140.704C91.8027 140.704 91.041 140.719 90.278 140.759C89.6962 140.789 88.8076 140.669 88.3157 141.031C87.8042 141.408 87.8394 142.178 87.9195 142.723C88.3416 145.601 89.3721 148.154 91.5282 150.193C94.848 153.333 98.6534 154.929 103.156 155.639C106.32 156.139 109.24 155.445 111.569 153.196C113.27 156.354 114.561 159.848 115.209 163.375C115.528 165.115 115.625 166.835 115.57 168.607C115.533 169.742 115.471 170.874 115.349 172.004C115.296 172.495 115.046 173.238 115.238 173.702C115.463 174.246 116.224 174.299 116.565 173.834C116.85 173.448 116.798 172.689 116.856 172.231C116.953 171.471 117.042 170.711 117.106 169.947C117.211 168.711 117.287 167.472 117.282 166.231C117.269 163.444 116.649 160.646 115.801 158.001C114.175 152.924 111.537 148.413 107.434 144.874C104.91 142.697 102.022 141.816 98.7462 141.343C96.706 141.048 94.633 140.704 92.5668 140.704Z" fill="#89C5CC"/>
<path fill-rule="evenodd" clip-rule="evenodd" d="M104.348 160.887C96.1028 160.887 90.5496 167.532 87.9241 174.439C86.934 177.042 86.7022 179.901 86.3205 182.635C86.1982 183.512 86.2438 184.849 85.8874 185.63C85.7582 185.914 85.4618 186.016 85.6037 186.402C85.6896 186.636 85.8574 186.779 86.1105 186.825C86.629 186.921 87.3625 186.356 87.8071 186.133C91.4953 184.283 93.9184 181.423 95.8952 177.924C97.1212 175.755 98.3645 173.503 99.0922 171.122C99.5368 169.667 99.7957 168.136 99.948 166.627C100.008 166.032 100.066 165.424 100.062 164.826C100.059 164.233 99.7825 163.919 99.5841 163.403C102.335 162.362 105.441 162.078 108.228 163.157C110.806 164.155 112.947 166.084 114.146 168.508C114.457 169.138 114.698 169.802 114.872 170.48C114.987 170.924 114.992 171.5 115.205 171.901C115.719 172.874 116.802 172.224 116.699 171.318C116.409 168.792 114.963 166.255 113.116 164.498C110.786 162.283 107.628 160.887 104.348 160.887Z" fill="#89C5CC"/>
<path d="M191.094 29.9861H117.859C115.311 29.9861 113.246 32.0515 113.246 34.5993V181.646C113.246 184.194 115.311 186.26 117.859 186.26H191.094C193.642 186.26 195.707 184.194 195.707 181.646V34.5993C195.707 32.0515 193.642 29.9861 191.094 29.9861Z" fill="#C7D1D9"/>
<path d="M154.188 177.033C158.965 177.033 162.838 173.16 162.838 168.383C162.838 163.606 158.965 159.733 154.188 159.733C149.411 159.733 145.538 163.606 145.538 168.383C145.538 173.16 149.411 177.033 154.188 177.033Z" fill="white"/>
<path d="M146.692 40.3659C147.329 40.3659 147.845 39.8495 147.845 39.2125C147.845 38.5756 147.329 38.0592 146.692 38.0592C146.055 38.0592 145.538 38.5756 145.538 39.2125C145.538 39.8495 146.055 40.3659 146.692 40.3659Z" fill="white"/>
<path d="M161.685 38.0592H151.882C151.245 38.0592 150.728 38.5756 150.728 39.2125C150.728 39.8495 151.245 40.3659 151.882 40.3659H161.685C162.322 40.3659 162.838 39.8495 162.838 39.2125C162.838 38.5756 162.322 38.0592 161.685 38.0592Z" fill="white"/>
<mask id="mask1_64_4673" style="mask-type:luminance" maskUnits="userSpaceOnUse" x="122" y="46" width="64" height="106">
<path d="M185.904 46.1324H122.472V151.66H185.904V46.1324Z" fill="white"/>
</mask>
<g mask="url(#mask1_64_4673)">
<mask id="mask2_64_4673" style="mask-type:luminance" maskUnits="userSpaceOnUse" x="122" y="46" width="64" height="28">
<path d="M185.904 46.1324H122.472V73.8119H185.904V46.1324Z" fill="white"/>
</mask>
<g mask="url(#mask2_64_4673)">
<path d="M183.598 46.1324H124.779C123.505 46.1324 122.472 47.1651 122.472 48.439V71.5052C122.472 72.7792 123.505 73.8119 124.779 73.8119H183.598C184.871 73.8119 185.904 72.7792 185.904 71.5052V48.439C185.904 47.1651 184.871 46.1324 183.598 46.1324Z" fill="white"/>
<mask id="mask3_64_4673" style="mask-type:luminance" maskUnits="userSpaceOnUse" x="127" y="54" width="31" height="12">
<path d="M157.648 54.4362H127.662V65.508H157.648V54.4362Z" fill="white"/>
</mask>
<g mask="url(#mask3_64_4673)">
<path d="M155.918 54.4362H129.392C128.437 54.4362 127.662 55.2107 127.662 56.1662V56.8582C127.662 57.8136 128.437 58.5881 129.392 58.5881H155.918C156.874 58.5881 157.648 57.8136 157.648 56.8582V56.1662C157.648 55.2107 156.874 54.4362 155.918 54.4362Z" fill="#C7D1D9"/>
<path d="M146.06 61.3561H129.392C128.437 61.3561 127.662 62.1306 127.662 63.086V63.778C127.662 64.7335 128.437 65.508 129.392 65.508H146.06C147.015 65.508 147.79 64.7335 147.79 63.778V63.086C147.79 62.1306 147.015 61.3561 146.06 61.3561Z" fill="#C7D1D9"/>
</g>
<path d="M179.125 64.0087C181.354 64.0087 183.162 62.2015 183.162 59.9721C183.162 57.7428 181.354 55.9355 179.125 55.9355C176.896 55.9355 175.088 57.7428 175.088 59.9721C175.088 62.2015 176.896 64.0087 179.125 64.0087Z" fill="#C7D1D9"/>
<path d="M179.125 61.7021C180.08 61.7021 180.855 60.9276 180.855 59.9721C180.855 59.0167 180.08 58.2422 179.125 58.2422C178.17 58.2422 177.395 59.0167 177.395 59.9721C177.395 60.9276 178.17 61.7021 179.125 61.7021Z" fill="#F2F2F2"/>
</g>
<mask id="mask4_64_4673" style="mask-type:luminance" maskUnits="userSpaceOnUse" x="122" y="78" width="64" height="22">
<path d="M185.904 78.4251H122.472V99.7613H185.904V78.4251Z" fill="white"/>
</mask>
<g mask="url(#mask4_64_4673)">
<path d="M183.598 78.4251H124.779C123.505 78.4251 122.472 79.4578 122.472 80.7317V97.4547C122.472 98.7286 123.505 99.7613 124.779 99.7613H183.598C184.871 99.7613 185.904 98.7286 185.904 97.4547V80.7317C185.904 79.4578 184.871 78.4251 183.598 78.4251Z" fill="white"/>
<mask id="mask5_64_4673" style="mask-type:luminance" maskUnits="userSpaceOnUse" x="144" y="84" width="31" height="10">
<path d="M174.948 84.826H144.962V93.3605H174.948V84.826Z" fill="white"/>
</mask>
<g mask="url(#mask5_64_4673)">
<path d="M173.348 84.826H146.562C145.678 84.826 144.962 85.5424 144.962 86.4262C144.962 87.3099 145.678 88.0264 146.562 88.0264H173.348C174.231 88.0264 174.948 87.3099 174.948 86.4262C174.948 85.5424 174.231 84.826 173.348 84.826Z" fill="#C7D1D9"/>
<path d="M163.489 90.16H146.562C145.678 90.16 144.962 90.8765 144.962 91.7602C144.962 92.644 145.678 93.3605 146.562 93.3605H163.489C164.373 93.3605 165.089 92.644 165.089 91.7602C165.089 90.8765 164.373 90.16 163.489 90.16Z" fill="#C7D1D9"/>
</g>
<path d="M134.582 96.0131C138.404 96.0131 141.502 92.9149 141.502 89.0932C141.502 85.2715 138.404 82.1733 134.582 82.1733C130.76 82.1733 127.662 85.2715 127.662 89.0932C127.662 92.9149 130.76 96.0131 134.582 96.0131Z" fill="#C5CFD6"/>
</g>
<mask id="mask6_64_4673" style="mask-type:luminance" maskUnits="userSpaceOnUse" x="122" y="104" width="64" height="22">
<path d="M185.904 104.375H122.472V125.711H185.904V104.375Z" fill="white"/>
</mask>
<g mask="url(#mask6_64_4673)">
<path d="M183.598 104.375H124.779C123.505 104.375 122.472 105.407 122.472 106.681V123.404C122.472 124.678 123.505 125.711 124.779 125.711H183.598C184.871 125.711 185.904 124.678 185.904 123.404V106.681C185.904 105.407 184.871 104.375 183.598 104.375Z" fill="white"/>
<mask id="mask7_64_4673" style="mask-type:luminance" maskUnits="userSpaceOnUse" x="127" y="110" width="31" height="10">
<path d="M157.648 110.775H127.662V119.31H157.648V110.775Z" fill="white"/>
</mask>
<g mask="url(#mask7_64_4673)">
<path d="M156.048 110.775H129.262C128.378 110.775 127.662 111.492 127.662 112.376C127.662 113.259 128.378 113.976 129.262 113.976H156.048C156.932 113.976 157.648 113.259 157.648 112.376C157.648 111.492 156.932 110.775 156.048 110.775Z" fill="#C7D1D9"/>
<path d="M146.189 116.11H129.262C128.378 116.11 127.662 116.826 127.662 117.71C127.662 118.594 128.378 119.31 129.262 119.31H146.189C147.073 119.31 147.79 118.594 147.79 117.71C147.79 116.826 147.073 116.11 146.189 116.11Z" fill="#C7D1D9"/>
</g>
<path d="M179.125 119.079C181.354 119.079 183.162 117.272 183.162 115.043C183.162 112.813 181.354 111.006 179.125 111.006C176.896 111.006 175.088 112.813 175.088 115.043C175.088 117.272 176.896 119.079 179.125 119.079Z" fill="#C7D1D9"/>
<path d="M179.125 116.773C180.08 116.773 180.855 115.998 180.855 115.043C180.855 114.087 180.08 113.313 179.125 113.313C178.17 113.313 177.395 114.087 177.395 115.043C177.395 115.998 178.17 116.773 179.125 116.773Z" fill="#F2F2F2"/>
</g>
<mask id="mask8_64_4673" style="mask-type:luminance" maskUnits="userSpaceOnUse" x="122" y="130" width="64" height="22">
<path d="M185.904 130.324H122.472V151.66H185.904V130.324Z" fill="white"/>
</mask>
<g mask="url(#mask8_64_4673)">
<path d="M183.598 130.324H124.779C123.505 130.324 122.472 131.357 122.472 132.631V149.354C122.472 150.628 123.505 151.66 124.779 151.66H183.598C184.871 151.66 185.904 150.628 185.904 149.354V132.631C185.904 131.357 184.871 130.324 183.598 130.324Z" fill="white"/>
<mask id="mask9_64_4673" style="mask-type:luminance" maskUnits="userSpaceOnUse" x="144" y="136" width="31" height="10">
<path d="M174.948 136.725H144.962V145.259H174.948V136.725Z" fill="white"/>
</mask>
<g mask="url(#mask9_64_4673)">
<path d="M173.348 136.725H146.562C145.678 136.725 144.962 137.441 144.962 138.325C144.962 139.209 145.678 139.925 146.562 139.925H173.348C174.231 139.925 174.948 139.209 174.948 138.325C174.948 137.441 174.231 136.725 173.348 136.725Z" fill="#C7D1D9"/>
<path d="M163.489 142.059H146.562C145.678 142.059 144.962 142.775 144.962 143.659C144.962 144.543 145.678 145.259 146.562 145.259H163.489C164.373 145.259 165.089 144.543 165.089 143.659C165.089 142.775 164.373 142.059 163.489 142.059Z" fill="#C7D1D9"/>
</g>
<path d="M134.582 147.912C138.404 147.912 141.502 144.814 141.502 140.992C141.502 137.17 138.404 134.072 134.582 134.072C130.76 134.072 127.662 137.17 127.662 140.992C127.662 144.814 130.76 147.912 134.582 147.912Z" fill="#C5CFD6"/>
</g>
</g>
</g>
<mask id="mask10_64_4673" style="mask-type:luminance" maskUnits="userSpaceOnUse" x="178" y="56" width="176" height="180">
<path d="M353.134 56.5122H178.984V235.852H353.134V56.5122Z" fill="white"/>
</mask>
<g mask="url(#mask10_64_4673)">
<path d="M348.521 56.5122H183.598C181.05 56.5122 178.984 58.5776 178.984 61.1254V231.239C178.984 233.786 181.05 235.852 183.598 235.852H348.521C351.069 235.852 353.134 233.786 353.134 231.239V61.1254C353.134 58.5776 351.069 56.5122 348.521 56.5122Z" fill="#F2F2F2"/>
<path d="M340.448 79.0017H313.345C310.797 79.0017 308.732 81.0672 308.732 83.615V116.484C308.732 119.032 310.797 121.098 313.345 121.098H340.448C342.996 121.098 345.061 119.032 345.061 116.484V83.615C345.061 81.0672 342.996 79.0017 340.448 79.0017Z" fill="white"/>
<path d="M326.896 103.177C331.482 103.177 335.2 99.4435 335.2 94.8378C335.2 90.2322 331.482 86.4985 326.896 86.4985C322.31 86.4985 318.592 90.2322 318.592 94.8378C318.592 99.4435 322.31 103.177 326.896 103.177Z" fill="#C7D1D9"/>
<path d="M338.307 105.262H315.485C314.622 105.262 313.922 105.962 313.922 106.826C313.922 107.689 314.622 108.389 315.485 108.389H338.307C339.171 108.389 339.871 107.689 339.871 106.826C339.871 105.962 339.171 105.262 338.307 105.262Z" fill="#C7D1D9"/>
<path d="M334.156 110.474H319.637C318.774 110.474 318.074 111.174 318.074 112.037C318.074 112.901 318.774 113.601 319.637 113.601H334.156C335.019 113.601 335.719 112.901 335.719 112.037C335.719 111.174 335.019 110.474 334.156 110.474Z" fill="#C7D1D9"/>
<path d="M178.984 61.1254C178.984 58.5778 181.05 56.5122 183.598 56.5122H348.521C351.069 56.5122 353.134 58.5778 353.134 61.1254V70.3519H178.984V61.1254Z" fill="#C5CFD6"/>
<path d="M186.481 66.892C187.755 66.892 188.787 65.8593 188.787 64.5854C188.787 63.3115 187.755 62.2787 186.481 62.2787C185.207 62.2787 184.174 63.3115 184.174 64.5854C184.174 65.8593 185.207 66.892 186.481 66.892Z" fill="#F2F2F2"/>
<path d="M193.401 66.892C194.675 66.892 195.707 65.8593 195.707 64.5854C195.707 63.3115 194.675 62.2787 193.401 62.2787C192.127 62.2787 191.094 63.3115 191.094 64.5854C191.094 65.8593 192.127 66.892 193.401 66.892Z" fill="#F2F2F2"/>
<path d="M200.321 66.892C201.594 66.892 202.627 65.8593 202.627 64.5854C202.627 63.3115 201.594 62.2787 200.321 62.2787C199.047 62.2787 198.014 63.3115 198.014 64.5854C198.014 65.8593 199.047 66.892 200.321 66.892Z" fill="#F2F2F2"/>
<mask id="mask11_64_4673" style="mask-type:luminance" maskUnits="userSpaceOnUse" x="308" y="125" width="38" height="101">
<path d="M345.061 125.134H308.732V225.472H345.061V125.134Z" fill="white"/>
</mask>
<g mask="url(#mask11_64_4673)">
<path d="M340.448 125.134H313.345C310.797 125.134 308.732 127.2 308.732 129.747V220.859C308.732 223.407 310.797 225.472 313.345 225.472H340.448C342.996 225.472 345.061 223.407 345.061 220.859V129.747C345.061 127.2 342.996 125.134 340.448 125.134Z" fill="white"/>
<mask id="mask12_64_4673" style="mask-type:luminance" maskUnits="userSpaceOnUse" x="319" y="135" width="16" height="83">
<path d="M334.681 135.514H319.111V217.976H334.681V135.514Z" fill="white"/>
</mask>
<g mask="url(#mask12_64_4673)">
<path d="M332.375 135.514H321.418C320.144 135.514 319.111 136.547 319.111 137.821V146.47C319.111 147.744 320.144 148.777 321.418 148.777H332.375C333.648 148.777 334.681 147.744 334.681 146.47V137.821C334.681 136.547 333.648 135.514 332.375 135.514Z" fill="#C7D1D9"/>
<path d="M332.375 153.39H321.418C320.144 153.39 319.111 154.423 319.111 155.697V163.77C319.111 165.044 320.144 166.077 321.418 166.077H332.375C333.648 166.077 334.681 165.044 334.681 163.77V155.697C334.681 154.423 333.648 153.39 332.375 153.39Z" fill="#AFB9C5"/>
<path d="M332.375 170.69H321.418C320.144 170.69 319.111 171.723 319.111 172.997V181.07C319.111 182.344 320.144 183.376 321.418 183.376H332.375C333.648 183.376 334.681 182.344 334.681 181.07V172.997C334.681 171.723 333.648 170.69 332.375 170.69Z" fill="#C7D1D9"/>
<path d="M332.375 205.289H321.418C320.144 205.289 319.111 206.322 319.111 207.596V215.669C319.111 216.943 320.144 217.976 321.418 217.976H332.375C333.648 217.976 334.681 216.943 334.681 215.669V207.596C334.681 206.322 333.648 205.289 332.375 205.289Z" fill="#C7D1D9"/>
<path d="M332.375 187.99H321.418C320.144 187.99 319.111 189.022 319.111 190.296V198.369C319.111 199.643 320.144 200.676 321.418 200.676H332.375C333.648 200.676 334.681 199.643 334.681 198.369V190.296C334.681 189.022 333.648 187.99 332.375 187.99Z" fill="#C5CFD6"/>
</g>
</g>
<mask id="mask13_64_4673" style="mask-type:luminance" maskUnits="userSpaceOnUse" x="188" y="81" width="111" height="147">
<path d="M298.929 81.885H188.211V227.202H298.929V81.885Z" fill="white"/>
</mask>
<g mask="url(#mask13_64_4673)">
<mask id="mask14_64_4673" style="mask-type:luminance" maskUnits="userSpaceOnUse" x="188" y="81" width="111" height="26">
<path d="M298.929 81.885H188.211V106.105H298.929V81.885Z" fill="white"/>
</mask>
<g mask="url(#mask14_64_4673)">
<path d="M296.622 81.885H190.517C189.244 81.885 188.211 82.9177 188.211 84.1916V103.798C188.211 105.072 189.244 106.105 190.517 106.105H296.622C297.896 106.105 298.929 105.072 298.929 103.798V84.1916C298.929 82.9177 297.896 81.885 296.622 81.885Z" fill="white"/>
<mask id="mask15_64_4673" style="mask-type:luminance" maskUnits="userSpaceOnUse" x="193" y="89" width="78" height="10">
<path d="M270.672 89.1509H193.401V98.8387H270.672V89.1509Z" fill="white"/>
</mask>
<g mask="url(#mask15_64_4673)">
<path d="M268.943 89.1509H195.131C194.175 89.1509 193.401 89.9254 193.401 90.8808V91.0538C193.401 92.0093 194.175 92.7838 195.131 92.7838H268.943C269.898 92.7838 270.672 92.0093 270.672 91.0538V90.8808C270.672 89.9254 269.898 89.1509 268.943 89.1509Z" fill="#C7D1D9"/>
<path d="M243.538 95.2057H195.131C194.175 95.2057 193.401 95.9803 193.401 96.9357V97.1087C193.401 98.0641 194.175 98.8387 195.131 98.8387H243.538C244.494 98.8387 245.268 98.0641 245.268 97.1087V96.9357C245.268 95.9803 244.494 95.2057 243.538 95.2057Z" fill="#C7D1D9"/>
</g>
<path d="M287.096 98.0314C289.326 98.0314 291.133 96.2241 291.133 93.9948C291.133 91.7654 289.326 89.9582 287.096 89.9582C284.867 89.9582 283.06 91.7654 283.06 93.9948C283.06 96.2241 284.867 98.0314 287.096 98.0314Z" fill="#C7D1D9"/>
<path d="M287.096 95.7247C288.052 95.7247 288.826 94.9502 288.826 93.9948C288.826 93.0393 288.052 92.2648 287.096 92.2648C286.141 92.2648 285.366 93.0393 285.366 93.9948C285.366 94.9502 286.141 95.7247 287.096 95.7247Z" fill="#F2F2F2"/>
</g>
<mask id="mask16_64_4673" style="mask-type:luminance" maskUnits="userSpaceOnUse" x="188" y="110" width="111" height="21">
<path d="M298.929 110.718H188.211V130.324H298.929V110.718Z" fill="white"/>
</mask>
<g mask="url(#mask16_64_4673)">
<path d="M296.622 110.718H190.517C189.244 110.718 188.211 111.75 188.211 113.024V128.017C188.211 129.291 189.244 130.324 190.517 130.324H296.622C297.896 130.324 298.929 129.291 298.929 128.017V113.024C298.929 111.75 297.896 110.718 296.622 110.718Z" fill="white"/>
<mask id="mask17_64_4673" style="mask-type:luminance" maskUnits="userSpaceOnUse" x="193" y="116" width="78" height="9">
<path d="M270.672 116.6H193.401V124.442H270.672V116.6Z" fill="white"/>
</mask>
<g mask="url(#mask17_64_4673)">
<path d="M269.202 116.6H194.871C194.059 116.6 193.401 117.258 193.401 118.07C193.401 118.882 194.059 119.541 194.871 119.541H269.202C270.014 119.541 270.672 118.882 270.672 118.07C270.672 117.258 270.014 116.6 269.202 116.6Z" fill="#C7D1D9"/>
<path d="M243.798 121.501H194.871C194.059 121.501 193.401 122.16 193.401 122.972C193.401 123.784 194.059 124.442 194.871 124.442H243.798C244.61 124.442 245.268 123.784 245.268 122.972C245.268 122.16 244.61 121.501 243.798 121.501Z" fill="#C7D1D9"/>
</g>
<path d="M287.096 124.557C289.326 124.557 291.133 122.75 291.133 120.521C291.133 118.292 289.326 116.484 287.096 116.484C284.867 116.484 283.06 118.292 283.06 120.521C283.06 122.75 284.867 124.557 287.096 124.557Z" fill="#C7D1D9"/>
<path d="M287.096 122.251C288.052 122.251 288.826 121.476 288.826 120.521C288.826 119.565 288.052 118.791 287.096 118.791C286.141 118.791 285.366 119.565 285.366 120.521C285.366 121.476 286.141 122.251 287.096 122.251Z" fill="#F2F2F2"/>
</g>
<mask id="mask18_64_4673" style="mask-type:luminance" maskUnits="userSpaceOnUse" x="188" y="134" width="111" height="21">
<path d="M298.929 134.937H188.211V154.544H298.929V134.937Z" fill="white"/>
</mask>
<g mask="url(#mask18_64_4673)">
<path d="M296.622 134.937H190.517C189.244 134.937 188.211 135.97 188.211 137.244V152.237C188.211 153.511 189.244 154.544 190.517 154.544H296.622C297.896 154.544 298.929 153.511 298.929 152.237V137.244C298.929 135.97 297.896 134.937 296.622 134.937Z" fill="white"/>
<mask id="mask19_64_4673" style="mask-type:luminance" maskUnits="userSpaceOnUse" x="193" y="140" width="78" height="9">
<path d="M270.672 140.819H193.401V148.662H270.672V140.819Z" fill="white"/>
</mask>
<g mask="url(#mask19_64_4673)">
<path d="M269.202 140.819H194.871C194.059 140.819 193.401 141.478 193.401 142.29C193.401 143.102 194.059 143.76 194.871 143.76H269.202C270.014 143.76 270.672 143.102 270.672 142.29C270.672 141.478 270.014 140.819 269.202 140.819Z" fill="#C7D1D9"/>
<path d="M243.798 145.721H194.871C194.059 145.721 193.401 146.379 193.401 147.191C193.401 148.003 194.059 148.662 194.871 148.662H243.798C244.61 148.662 245.268 148.003 245.268 147.191C245.268 146.379 244.61 145.721 243.798 145.721Z" fill="#C7D1D9"/>
</g>
<path d="M287.096 148.777C289.326 148.777 291.133 146.97 291.133 144.74C291.133 142.511 289.326 140.704 287.096 140.704C284.867 140.704 283.06 142.511 283.06 144.74C283.06 146.97 284.867 148.777 287.096 148.777Z" fill="#C7D1D9"/>
<path d="M287.096 146.47C288.052 146.47 288.826 145.696 288.826 144.74C288.826 143.785 288.052 143.01 287.096 143.01C286.141 143.01 285.366 143.785 285.366 144.74C285.366 145.696 286.141 146.47 287.096 146.47Z" fill="#AFB9C5"/>
</g>
<mask id="mask20_64_4673" style="mask-type:luminance" maskUnits="userSpaceOnUse" x="188" y="207" width="111" height="21">
<path d="M298.929 207.596H188.211V227.202H298.929V207.596Z" fill="white"/>
</mask>
<g mask="url(#mask20_64_4673)">
<path d="M296.622 207.596H190.517C189.244 207.596 188.211 208.629 188.211 209.902V224.895C188.211 226.169 189.244 227.202 190.517 227.202H296.622C297.896 227.202 298.929 226.169 298.929 224.895V209.902C298.929 208.629 297.896 207.596 296.622 207.596Z" fill="white"/>
<mask id="mask21_64_4673" style="mask-type:luminance" maskUnits="userSpaceOnUse" x="193" y="213" width="78" height="9">
<path d="M270.672 213.478H193.401V221.32H270.672V213.478Z" fill="white"/>
</mask>
<g mask="url(#mask21_64_4673)">
<path d="M269.202 213.478H194.871C194.059 213.478 193.401 214.136 193.401 214.948C193.401 215.76 194.059 216.419 194.871 216.419H269.202C270.014 216.419 270.672 215.76 270.672 214.948C270.672 214.136 270.014 213.478 269.202 213.478Z" fill="#C7D1D9"/>
<path d="M243.798 218.379H194.871C194.059 218.379 193.401 219.038 193.401 219.85C193.401 220.662 194.059 221.32 194.871 221.32H243.798C244.61 221.32 245.268 220.662 245.268 219.85C245.268 219.038 244.61 218.379 243.798 218.379Z" fill="#C7D1D9"/>
</g>
<path d="M287.096 221.436C289.326 221.436 291.133 219.628 291.133 217.399C291.133 215.17 289.326 213.362 287.096 213.362C284.867 213.362 283.06 215.17 283.06 217.399C283.06 219.628 284.867 221.436 287.096 221.436Z" fill="#C7D1D9"/>
<path d="M287.096 219.129C288.052 219.129 288.826 218.354 288.826 217.399C288.826 216.444 288.052 215.669 287.096 215.669C286.141 215.669 285.366 216.444 285.366 217.399C285.366 218.354 286.141 219.129 287.096 219.129Z" fill="#F2F2F2"/>
</g>
<mask id="mask22_64_4673" style="mask-type:luminance" maskUnits="userSpaceOnUse" x="188" y="183" width="111" height="20">
<path d="M298.929 183.376H188.211V202.983H298.929V183.376Z" fill="white"/>
</mask>
<g mask="url(#mask22_64_4673)">
<path d="M296.622 183.376H190.517C189.244 183.376 188.211 184.409 188.211 185.683V200.676C188.211 201.95 189.244 202.983 190.517 202.983H296.622C297.896 202.983 298.929 201.95 298.929 200.676V185.683C298.929 184.409 297.896 183.376 296.622 183.376Z" fill="white"/>
<mask id="mask23_64_4673" style="mask-type:luminance" maskUnits="userSpaceOnUse" x="193" y="189" width="78" height="9">
<path d="M270.672 189.258H193.401V197.101H270.672V189.258Z" fill="white"/>
</mask>
<g mask="url(#mask23_64_4673)">
<path d="M269.202 189.258H194.871C194.059 189.258 193.401 189.917 193.401 190.729C193.401 191.541 194.059 192.199 194.871 192.199H269.202C270.014 192.199 270.672 191.541 270.672 190.729C270.672 189.917 270.014 189.258 269.202 189.258Z" fill="#C7D1D9"/>
<path d="M243.798 194.16H194.871C194.059 194.16 193.401 194.818 193.401 195.63C193.401 196.442 194.059 197.101 194.871 197.101H243.798C244.61 197.101 245.268 196.442 245.268 195.63C245.268 194.818 244.61 194.16 243.798 194.16Z" fill="#C7D1D9"/>
</g>
<path d="M287.096 197.216C289.326 197.216 291.133 195.409 291.133 193.179C291.133 190.95 289.326 189.143 287.096 189.143C284.867 189.143 283.06 190.95 283.06 193.179C283.06 195.409 284.867 197.216 287.096 197.216Z" fill="#C7D1D9"/>
<path d="M287.096 194.909C288.052 194.909 288.826 194.135 288.826 193.179C288.826 192.224 288.052 191.449 287.096 191.449C286.141 191.449 285.366 192.224 285.366 193.179C285.366 194.135 286.141 194.909 287.096 194.909Z" fill="#F2F2F2"/>
</g>
<mask id="mask24_64_4673" style="mask-type:luminance" maskUnits="userSpaceOnUse" x="188" y="159" width="111" height="20">
<path d="M298.929 159.157H188.211V178.763H298.929V159.157Z" fill="white"/>
</mask>
<g mask="url(#mask24_64_4673)">
<path d="M296.622 159.157H190.517C189.244 159.157 188.211 160.19 188.211 161.463V176.456C188.211 177.73 189.244 178.763 190.517 178.763H296.622C297.896 178.763 298.929 177.73 298.929 176.456V161.463C298.929 160.19 297.896 159.157 296.622 159.157Z" fill="white"/>
<mask id="mask25_64_4673" style="mask-type:luminance" maskUnits="userSpaceOnUse" x="193" y="165" width="78" height="8">
<path d="M270.672 165.039H193.401V172.881H270.672V165.039Z" fill="white"/>
</mask>
<g mask="url(#mask25_64_4673)">
<path d="M269.202 165.039H194.871C194.059 165.039 193.401 165.697 193.401 166.509C193.401 167.321 194.059 167.98 194.871 167.98H269.202C270.014 167.98 270.672 167.321 270.672 166.509C270.672 165.697 270.014 165.039 269.202 165.039Z" fill="#C7D1D9"/>
<path d="M243.798 169.94H194.871C194.059 169.94 193.401 170.599 193.401 171.411C193.401 172.223 194.059 172.881 194.871 172.881H243.798C244.61 172.881 245.268 172.223 245.268 171.411C245.268 170.599 244.61 169.94 243.798 169.94Z" fill="#C7D1D9"/>
</g>
<path d="M287.096 172.997C289.326 172.997 291.133 171.189 291.133 168.96C291.133 166.731 289.326 164.923 287.096 164.923C284.867 164.923 283.06 166.731 283.06 168.96C283.06 171.189 284.867 172.997 287.096 172.997Z" fill="#C7D1D9"/>
<path d="M287.096 170.69C288.052 170.69 288.826 169.915 288.826 168.96C288.826 168.005 288.052 167.23 287.096 167.23C286.141 167.23 285.366 168.005 285.366 168.96C285.366 169.915 286.141 170.69 287.096 170.69Z" fill="#F2F2F2"/>
</g>
</g>
</g>
<path fill-rule="evenodd" clip-rule="evenodd" d="M27.275 189.846C36.9311 206.126 48.177 221.891 54.9308 239.692C54.6586 237.593 54.3703 235.497 54.0474 233.405C52.3336 222.31 50.204 211.296 47.9654 200.295C46.8259 194.694 45.6207 189.113 44.3844 183.533C43.7189 180.536 43.0621 177.537 42.384 174.543C42.2196 173.817 42.0783 172.55 41.8725 171.267C48.436 192.914 54.7653 214.576 59.3953 236.743C60.0025 239.653 60.5198 242.557 60.9436 245.456C61.0884 244.795 61.2308 244.133 61.3871 243.474C63.26 235.568 66.0701 227.724 69.4164 220.332C71.0155 216.796 72.8527 213.339 75.0163 210.116C76.3651 208.108 79.5465 205.721 80.7765 203.664C74.0469 216.069 71.6169 231.591 67.7308 245.078C66.7828 248.369 65.8285 251.655 64.8931 254.947C70.7531 243.136 79.8452 233.432 92.4861 229.226C77.1845 239.387 68.0065 257.182 61.8219 275.381C61.8017 275.597 61.7775 275.813 61.7567 276.029C63.5766 272.558 65.8688 269.418 68.9758 267.218C75.6258 262.511 83.0024 263.883 89.4534 267.921C84.3904 264.686 75.2406 267.631 70.9809 270.919C67.9315 273.272 65.3256 276.429 63.0622 279.509C62.5202 280.247 61.7803 281.109 60.9984 282.028C59.9028 289.177 58.1169 296.277 55.5888 303.321C56.0063 301.299 55.7041 298.065 55.82 296.558C55.8327 296.396 55.8431 296.232 55.8552 296.069C55.4712 297.612 55.0998 299.136 54.7423 300.636C55.4527 297.774 55.8391 294.785 56.1407 291.767C56.2185 290.469 56.294 289.172 56.3742 287.874C56.3488 285.412 56.2479 282.94 56.0772 280.464C55.4717 278.057 54.7942 275.788 54.2354 273.9C52.2194 267.089 49.2635 260.564 45.6248 254.477C42.3055 248.922 38.3318 243.89 33.7445 239.339C31.2718 236.886 28.6838 234.551 26.1321 232.183C25.2095 231.326 23.5602 229.222 22.1342 228.124C32.5214 233.88 43.2132 240.106 50.791 249.38C49.9024 245.951 48.9377 242.571 47.917 239.259C42.7386 222.453 36.1999 205.035 27.275 189.846Z" fill="#C7D1D9"/>
<path d="M59.0401 316.007C70.8237 316.007 80.3763 308.391 80.3763 298.996C80.3763 289.601 70.8237 281.984 59.0401 281.984C47.2564 281.984 37.7038 289.601 37.7038 298.996C37.7038 308.391 47.2564 316.007 59.0401 316.007Z" fill="#C5CFD6"/>
<path d="M401.573 40.0775C401.573 39.2813 400.928 38.6359 400.132 38.6359C399.335 38.6359 398.69 39.2813 398.69 40.0775V49.8807C398.69 50.6769 399.335 51.3223 400.132 51.3223C400.928 51.3223 401.573 50.6769 401.573 49.8807V40.0775Z" fill="#C7D1D9"/>
<path d="M409.07 31.4277C409.07 30.6315 408.424 29.9861 407.628 29.9861C406.832 29.9861 406.186 30.6315 406.186 31.4277V49.8807C406.186 50.6768 406.832 51.3223 407.628 51.3223C408.424 51.3223 409.07 50.6768 409.07 49.8807V31.4277Z" fill="#C7D1D9"/>
<path d="M416.566 27.3911C416.566 26.5949 415.921 25.9495 415.125 25.9495C414.328 25.9495 413.683 26.5949 413.683 27.3911V49.8806C413.683 50.6768 414.328 51.3223 415.125 51.3223C415.921 51.3223 416.566 50.6768 416.566 49.8806V27.3911Z" fill="#C7D1D9"/>
<path d="M423.486 31.4277C423.486 30.6315 422.841 29.9861 422.044 29.9861C421.248 29.9861 420.603 30.6315 420.603 31.4277V49.8807C420.603 50.6768 421.248 51.3223 422.044 51.3223C422.841 51.3223 423.486 50.6768 423.486 49.8807V31.4277Z" fill="#C7D1D9"/>
<path d="M430.983 23.3545C430.983 22.5583 430.337 21.9129 429.541 21.9129C428.745 21.9129 428.099 22.5583 428.099 23.3545V49.8807C428.099 50.6769 428.745 51.3223 429.541 51.3223C430.337 51.3223 430.983 50.6769 430.983 49.8807V23.3545Z" fill="#C5CFD6"/>
<path fill-rule="evenodd" clip-rule="evenodd" d="M0.221252 163.159C0.221252 157.47 4.89331 152.814 10.601 152.814V163.159L3.50761 170.69C1.48989 168.849 0.221252 166.148 0.221252 163.159Z" fill="#F2F2F2"/>
<path fill-rule="evenodd" clip-rule="evenodd" d="M10.3617 162.617H20.9808C20.9808 165.326 19.861 167.865 18.0906 169.71C16.1439 171.728 13.3713 172.997 10.3617 172.997C7.58975 172.997 5.05189 171.902 3.10452 170.171L10.3617 162.617Z" fill="#AFB9C5"/>
<path fill-rule="evenodd" clip-rule="evenodd" d="M20.9808 163.193C20.9808 157.486 16.3088 152.814 10.601 152.814V163.193H20.9808ZM5.41115 152.814L9.56306 162.155L0.221252 158.003C1.14505 155.582 3.21928 153.737 5.41115 152.814Z" fill="#C5CFD6"/>
<path fill-rule="evenodd" clip-rule="evenodd" d="M444.323 189.051C443.322 190.09 441.903 190.743 440.325 190.743C437.293 190.743 434.835 188.348 434.835 185.395C434.835 182.441 437.293 180.046 440.325 180.046V170.113C431.699 170.113 424.639 176.992 424.639 185.395C424.639 193.798 431.699 200.676 440.325 200.676C444.856 200.676 448.951 198.809 451.742 195.838L444.323 189.051Z" fill="#F2F2F2"/>
<path fill-rule="evenodd" clip-rule="evenodd" d="M440.209 170.113V180.234C443.219 180.234 445.658 182.673 445.658 185.683H455.779C455.779 177.121 448.771 170.113 440.209 170.113Z" fill="#AFB9C5"/>
<path fill-rule="evenodd" clip-rule="evenodd" d="M445.258 185.683C445.258 187.402 444.41 188.93 443.092 189.917L449.574 197.793C453.347 194.973 455.779 190.602 455.779 185.683H445.258Z" fill="#C5CFD6"/>
<path fill-rule="evenodd" clip-rule="evenodd" d="M367.477 28.4902C366.688 29.2941 365.571 29.7987 364.329 29.7987C361.943 29.7987 360.007 27.9464 360.007 25.6611C360.007 23.3759 361.943 21.5236 364.329 21.5236V13.8397C357.539 13.8397 351.981 19.1605 351.981 25.6611C351.981 32.1618 357.539 37.4826 364.329 37.4826C367.896 37.4826 371.119 36.0381 373.317 33.7401L367.477 28.4902Z" fill="#F2F2F2"/>
<path fill-rule="evenodd" clip-rule="evenodd" d="M364.091 13.8397V21.7111C366.431 21.7111 368.329 23.6088 368.329 25.9495H376.2C376.2 19.2903 370.75 13.8397 364.091 13.8397Z" fill="#AFB9C5"/>
<path fill-rule="evenodd" clip-rule="evenodd" d="M368.549 25.9495C368.549 27.259 367.932 28.4233 366.974 29.1753L371.688 35.1759C374.432 33.0279 376.2 29.6977 376.2 25.9495H368.549Z" fill="#C5CFD6"/>
<path fill-rule="evenodd" clip-rule="evenodd" d="M44.0511 27.0947C44.0488 27.1005 44.0465 27.1063 44.043 27.1132C44.0465 27.1074 44.0511 27.0843 44.0511 27.0947Z" fill="#C5CFD6"/>
<path fill-rule="evenodd" clip-rule="evenodd" d="M44.0459 27.1034C44.0459 27.1045 44.0447 27.1068 44.0447 27.1091C44.0447 27.1034 44.0551 27.0861 44.0459 27.1034Z" fill="#C5CFD6"/>
<path fill-rule="evenodd" clip-rule="evenodd" d="M44.0857 27.0059C44.0776 27.029 44.0672 27.0509 44.058 27.074C44.0626 27.0624 44.0672 27.0532 44.0718 27.0417C43.9519 27.3415 44.028 27.1466 44.0857 27.0059Z" fill="#C5CFD6"/>
<path fill-rule="evenodd" clip-rule="evenodd" d="M44.0597 27.0757C44.0551 27.0861 44.0505 27.0976 44.0459 27.108C44.0124 27.1726 44.0597 27.0757 44.0597 27.0757Z" fill="#C5CFD6"/>
<path fill-rule="evenodd" clip-rule="evenodd" d="M44.0413 27.112C44.0344 27.1258 44.0736 27.059 44.0413 27.112V27.112Z" fill="#C5CFD6"/>
<path fill-rule="evenodd" clip-rule="evenodd" d="M44.0459 27.1039L44.0482 27.1016C44.047 27.1028 44.047 27.1039 44.0459 27.1039Z" fill="#C5CFD6"/>
<path d="M66.5366 0H21.5575C20.2836 0 19.2509 1.03271 19.2509 2.30662V30.5627C19.2509 31.8366 20.2836 32.8693 21.5575 32.8693H66.5366C67.8105 32.8693 68.8432 31.8366 68.8432 30.5627V2.30662C68.8432 1.03271 67.8105 0 66.5366 0Z" fill="#C7D1D9"/>
<path fill-rule="evenodd" clip-rule="evenodd" d="M37.8192 9.22647L23.2874 32.8693H52.3509L37.8192 9.22647Z" fill="#AFB9C5"/>
<path fill-rule="evenodd" clip-rule="evenodd" d="M52.0914 15.5312L39.3761 32.8693H64.8066L52.0914 15.5312Z" fill="#C5CFD6"/>
<path d="M57.8868 15.5697C60.4346 15.5697 62.5 13.5043 62.5 10.9564C62.5 8.40862 60.4346 6.3432 57.8868 6.3432C55.3389 6.3432 53.2735 8.40862 53.2735 10.9564C53.2735 13.5043 55.3389 15.5697 57.8868 15.5697Z" fill="white"/>
<path fill-rule="evenodd" clip-rule="evenodd" d="M377.926 247.954C377.929 247.959 377.931 247.965 377.934 247.972C377.931 247.966 377.926 247.943 377.926 247.954Z" fill="#C5CFD6"/>
<path fill-rule="evenodd" clip-rule="evenodd" d="M377.931 247.962C377.931 247.963 377.933 247.966 377.933 247.968C377.933 247.962 377.922 247.945 377.931 247.962Z" fill="#C5CFD6"/>
<path fill-rule="evenodd" clip-rule="evenodd" d="M377.892 247.865C377.9 247.888 377.91 247.91 377.919 247.933C377.915 247.921 377.91 247.912 377.905 247.901C378.025 248.2 377.949 248.005 377.892 247.865Z" fill="#C5CFD6"/>
<path fill-rule="evenodd" clip-rule="evenodd" d="M377.918 247.935C377.922 247.945 377.927 247.956 377.931 247.967C377.965 248.031 377.918 247.935 377.918 247.935Z" fill="#C5CFD6"/>
<path fill-rule="evenodd" clip-rule="evenodd" d="M377.936 247.971C377.904 247.918 377.943 247.985 377.936 247.971V247.971Z" fill="#C5CFD6"/>
<path fill-rule="evenodd" clip-rule="evenodd" d="M377.931 247.963L377.929 247.96C377.93 247.962 377.93 247.963 377.931 247.963Z" fill="#C5CFD6"/>
<path d="M339.294 203.559H416.566C417.84 203.559 418.873 204.592 418.873 205.866V255.458C418.873 256.732 417.84 257.765 416.566 257.765H339.294C338.021 257.765 336.988 256.732 336.988 255.458V205.866C336.988 204.592 338.021 203.559 339.294 203.559Z" fill="#C7D1D9"/>
<path fill-rule="evenodd" clip-rule="evenodd" d="M388.468 219.129L412.143 257.765H364.794L388.468 219.129Z" fill="#AFB9C5"/>
<path fill-rule="evenodd" clip-rule="evenodd" d="M364.058 229.478L384.988 257.765H343.129L364.058 229.478Z" fill="#C5CFD6"/>
<path d="M355.152 229.509C350.853 229.509 347.368 226.023 347.368 221.724C347.368 217.424 350.853 213.939 355.152 213.939C359.452 213.939 362.937 217.424 362.937 221.724C362.937 226.023 359.452 229.509 355.152 229.509Z" fill="white"/>
<path fill-rule="evenodd" clip-rule="evenodd" d="M349.711 128.735C345.977 130.986 342.308 132.073 340.586 131.629C336.267 130.516 335.87 114.717 339.212 108.488C342.553 102.26 359.732 99.5451 360.598 111.886C360.898 116.169 359.1 119.991 356.443 123.11L361.207 145.317H347.368L349.711 128.735Z" fill="#915B3C"/>
<path fill-rule="evenodd" clip-rule="evenodd" d="M356.017 108.988C348.031 109.045 342.474 108.708 339.294 107.834C339.439 105.128 342.253 102.068 349.674 102.068C357.931 102.068 362.361 106.88 362.361 112.448C362.361 117.534 359.086 123.729 356.594 123.981C355.949 123.84 355.398 123.063 354.851 121.993C355.876 121.507 356.594 120.386 356.594 119.079C356.594 117.328 355.303 115.908 353.711 115.908C353.133 115.908 352.594 116.095 352.143 116.417C351.095 114.727 349.783 113.464 347.944 113.601L349.098 110.141L356.017 109.564V108.988Z" fill="#B58143"/>
<path fill-rule="evenodd" clip-rule="evenodd" d="M362.361 193.179L334.057 264.816L315.074 325.378H307.578L337.752 193.179H362.361Z" fill="#915B3C"/>
<path fill-rule="evenodd" clip-rule="evenodd" d="M368.06 193.179C368.361 218.353 372.757 252.244 373.459 253.814C374.161 255.383 421.943 293.724 421.943 293.724L416.78 299.249C416.78 299.249 360.402 266.377 357.793 261.992C355.184 257.608 346.691 217.262 339.871 193.179H368.06Z" fill="#915B3C"/>
<path fill-rule="evenodd" clip-rule="evenodd" d="M421.113 292.689C421.301 292.041 421.984 291.655 422.619 291.887C423.776 292.31 425.467 292.994 426.217 293.623C427.412 294.626 429.37 296.947 429.37 296.947C428.207 298.334 408.464 321.862 408.464 321.862C408.464 321.862 404.438 320.139 405.938 317.832C407.438 315.525 408.393 313.968 408.393 313.968L412.947 298.056C413.037 297.743 413.366 297.567 413.676 297.665L416.106 298.436C416.106 298.436 418.635 297.257 419.652 296.045C420.27 295.309 420.796 293.776 421.113 292.689Z" fill="#E4E4E4"/>
<path fill-rule="evenodd" clip-rule="evenodd" d="M316.545 321.937C317.164 321.666 317.898 321.941 318.128 322.576C318.548 323.733 319.112 325.469 319.112 326.448C319.112 328.008 318.592 331 318.592 331C316.782 331 286.067 331 286.067 331C286.067 331 284.799 326.809 287.531 326.474C290.263 326.141 292.069 325.871 292.069 325.871L307.186 319.132C307.483 318.999 307.83 319.138 307.954 319.439L308.926 321.796C308.926 321.796 311.455 322.976 313.035 322.976C313.998 322.976 315.51 322.393 316.545 321.937Z" fill="#E4E4E4"/>
<path fill-rule="evenodd" clip-rule="evenodd" d="M343.331 319.14L307.691 315.272L336.411 193.179H366.026L343.331 319.14Z" fill="#191847"/>
<path fill-rule="evenodd" clip-rule="evenodd" d="M414.571 284.81L391.193 312.481C391.193 312.481 354.259 272.142 348.127 259.838C341.996 247.535 337.104 193.179 337.104 193.179H373.041C373.041 193.179 375.714 240.999 376.644 243.224C377.575 245.45 414.571 284.81 414.571 284.81Z" fill="#393F82"/>
<path fill-rule="evenodd" clip-rule="evenodd" d="M298.536 199.312L316.931 185.805L320.997 195.856L302.782 203.41C297.631 209.461 294.75 211.984 294.14 210.978C293.626 210.13 294.028 209.336 294.398 208.604C294.686 208.034 294.955 207.502 294.758 207.013C294.305 205.894 290.844 206.012 287.566 206.264C284.286 206.516 285.242 205.057 286.032 204.337C289.38 202.333 293.548 200.659 298.536 199.312ZM395 223.112C393.311 219.684 387.556 186.271 387.556 186.271L375.505 186.318C375.505 186.318 386.666 222.348 387.556 224.553C388.711 227.417 386.749 231.577 385.418 234.399C385.212 234.835 385.021 235.239 384.859 235.602C386.706 236.429 387.593 235.43 388.528 234.377C389.585 233.187 390.703 231.929 393.334 233.153C394.351 233.626 395.313 234.185 396.252 234.731C399.499 236.618 402.481 238.352 406.539 235.848C407.182 235.452 407.887 233.958 406.184 232.79C401.941 229.881 395.827 224.789 395 223.112Z" fill="#915B3C"/>
<path fill-rule="evenodd" clip-rule="evenodd" d="M353.31 135.705L348.324 134.85C329.823 150.832 322.224 181.536 299.546 197.801L305.004 204.567C344.346 199.696 354.097 162.245 353.31 135.705Z" fill="#E87613"/>
<path fill-rule="evenodd" clip-rule="evenodd" d="M375.047 198.369C375.047 198.369 345.056 198.369 330.927 198.369C328.91 198.369 329.29 195.458 329.582 193.989C332.945 177.035 346.075 158.76 346.075 134.626L358.802 132.631C369.328 149.56 372.968 170.404 375.047 198.369Z" fill="#C7D1D9"/>
<path fill-rule="evenodd" clip-rule="evenodd" d="M380.008 210.479C381.991 215.242 383.935 219.397 385.768 222.589H395.23C396.248 189.673 383.786 164.345 373.357 149.073C375.672 148.907 377.762 147.938 379.084 145.554C383.735 137.161 382.055 132.54 377.084 131.021C374.351 130.186 371.78 130.756 368.703 131.438C366.184 131.997 363.327 132.63 359.763 132.631C359.762 132.631 359.761 132.631 359.76 132.631C359.415 132.631 359.1 132.654 358.815 132.698L354.592 132.939C354.592 132.939 337.446 191.049 345.135 210.479H380.008Z" fill="#FFA434"/>
<path fill-rule="evenodd" clip-rule="evenodd" d="M380.008 210.479C377.406 204.23 374.738 196.937 372.171 189.405C371.215 197.7 369.624 206.031 366.974 210.479H380.008Z" fill="black" fill-opacity="0.1"/>
<path fill-rule="evenodd" clip-rule="evenodd" d="M215.025 143.01C208.178 143.01 202.627 148.561 202.627 155.409V167.518C202.627 173.899 207.448 179.155 213.646 179.841C213.648 179.87 213.65 179.9 213.651 179.929H230.374C233.017 177.347 230.427 160.882 228.439 153.558C227.546 147.588 222.397 143.01 216.179 143.01H215.025Z" fill="#B58143"/>
<path fill-rule="evenodd" clip-rule="evenodd" d="M215.853 170.831C219.587 173.082 223.256 174.169 224.979 173.725C229.297 172.612 229.694 156.813 226.353 150.584C223.011 144.356 205.832 141.641 204.967 153.982C204.666 158.265 206.464 162.087 209.122 165.206L204.357 187.413H218.197L215.853 170.831Z" fill="#57331F"/>
<path fill-rule="evenodd" clip-rule="evenodd" d="M203.135 154.054C203.537 153.656 203.926 153.272 204.312 152.928L204.293 152.48C204.293 152.48 208.637 143.587 215.314 143.587C221.986 143.587 224.096 146.689 225.89 149.325L225.894 149.332C224.956 152.551 222.129 153.854 218.931 155.327C217.555 155.961 216.11 156.626 214.717 157.49C214.172 157.047 213.476 156.781 212.719 156.781C210.967 156.781 209.547 158.201 209.547 159.953C209.547 161.704 210.967 163.124 212.719 163.124C212.767 163.124 212.815 163.123 212.863 163.121C213.5 169.971 213.245 177.793 211.345 179.649H194.622C194.142 171.309 196.299 168.929 198.504 166.498C200.579 164.21 202.695 161.877 202.695 154.487C202.844 154.342 202.99 154.197 203.135 154.054Z" fill="#B58143"/>
<path fill-rule="evenodd" clip-rule="evenodd" d="M179.343 259.495H223.892L229.73 331H163.415L179.343 259.495Z" fill="#C5CFD6"/>
<path fill-rule="evenodd" clip-rule="evenodd" d="M179.343 259.495H193.045L201.246 331H163.415L179.343 259.495Z" fill="black" fill-opacity="0.1"/>
<path fill-rule="evenodd" clip-rule="evenodd" d="M248.369 273.661C243.363 284.278 235.541 310.051 235.541 310.051L242.182 313.086C242.182 313.086 259.032 285.993 269.33 267.474C268.85 271.643 268.362 276.337 267.909 281.271C266.836 292.96 267.909 318.214 268.486 325.509C268.849 330.094 275.078 329.133 275.659 325.497C275.758 324.881 276.159 322.719 276.758 319.493C279.695 303.674 287.382 262.273 287.395 252.136C287.401 248.057 279.432 244.392 274.682 247.244C271.42 243.763 265.245 241.757 261.697 247.507C259.442 251.163 254.084 261.542 248.369 273.661Z" fill="#57331F"/>
<path fill-rule="evenodd" clip-rule="evenodd" d="M236.016 300.509L258.809 246.513C264.27 237.729 279.579 248.3 277.717 253.395C273.489 264.961 251.989 302.406 250.729 305.852L236.016 300.509Z" fill="#191847"/>
<path fill-rule="evenodd" clip-rule="evenodd" d="M236.456 306.887C236.056 306.343 235.283 306.214 234.766 306.648C233.824 307.441 232.468 308.663 231.978 309.51C231.199 310.861 230.153 313.712 230.153 313.712C231.719 314.617 258.319 329.975 258.319 329.975C258.319 329.975 261.513 326.979 259.315 325.324C257.116 323.668 255.686 322.532 255.686 322.532L245.964 309.137C245.773 308.874 245.403 308.821 245.146 309.019L243.126 310.574C243.126 310.574 240.346 310.332 238.977 309.541C238.143 309.06 237.125 307.799 236.456 306.887Z" fill="#E4E4E4"/>
<path fill-rule="evenodd" clip-rule="evenodd" d="M268.625 321.937C268.007 321.666 267.273 321.941 267.042 322.576C266.623 323.733 266.059 325.469 266.059 326.448C266.059 328.008 266.579 331 266.579 331C268.388 331 299.103 331 299.103 331C299.103 331 300.371 326.809 297.64 326.474C294.908 326.141 293.101 325.871 293.101 325.871L277.984 319.132C277.687 318.999 277.34 319.138 277.216 319.439L276.245 321.796C276.245 321.796 273.716 322.976 272.135 322.976C271.173 322.976 269.661 322.393 268.625 321.937Z" fill="#E4E4E4"/>
<path fill-rule="evenodd" clip-rule="evenodd" d="M288.993 256.285C288.993 271.605 281.718 307.34 281.713 310.713L266.059 310.725C266.059 310.725 269.496 262.896 268.497 262.38C267.497 261.865 227.525 266.371 215.536 266.371C198.249 266.371 191.098 255.47 190.517 235.275H224.763C231.736 236.021 268.106 243.357 281.613 245.879C287.395 246.959 288.993 252.064 288.993 256.285Z" fill="#393F82"/>
<path fill-rule="evenodd" clip-rule="evenodd" d="M272.104 209.283L249.336 212.388L253.421 222.589L271.896 215.265C279.859 216.05 283.709 215.861 283.447 214.697C283.226 213.716 282.38 213.42 281.6 213.147C280.993 212.934 280.426 212.736 280.227 212.239C279.772 211.104 282.361 208.751 284.912 206.624C287.463 204.498 285.751 204.106 284.674 204.138C280.849 205.034 276.659 206.749 272.104 209.283ZM161.338 265.208C163.027 261.78 177.814 217.658 177.814 217.658L190.441 217.706C190.441 217.706 169.672 264.444 168.782 266.649C167.627 269.512 169.589 273.673 170.92 276.495C171.126 276.931 171.317 277.335 171.479 277.698C169.632 278.524 168.745 277.526 167.81 276.473C166.753 275.283 165.635 274.025 163.004 275.248C161.987 275.722 161.025 276.281 160.086 276.827C156.839 278.714 153.857 280.448 149.799 277.944C149.156 277.548 148.451 276.053 150.154 274.886C154.397 271.976 160.511 266.885 161.338 265.208Z" fill="#3D2216"/>
<path fill-rule="evenodd" clip-rule="evenodd" d="M212.401 177.61L222.288 178.268C224.723 200.297 237.985 214.212 267.68 209.501L271.625 237.87C243.871 241.456 219.531 230.345 214.542 200.26C213.251 192.472 212.231 184.367 212.401 177.61Z" fill="#E87613"/>
<path fill-rule="evenodd" clip-rule="evenodd" d="M163.07 259.495C169.934 222.972 184.422 194.716 206.535 174.726H207.483H207.515L207.524 174.736L222.503 178.166C222.503 196.16 226.506 209.605 230.355 222.531C232.017 228.113 233.65 233.599 234.92 239.312H194.464C193.894 245.857 193.544 252.585 193.362 259.495H163.07Z" fill="#FFA434"/>
<path fill-rule="evenodd" clip-rule="evenodd" d="M194.464 239.312C195.624 225.986 197.696 213.414 201.121 201.597C200.37 214.234 200.162 229.911 202.687 239.312H194.464Z" fill="black" fill-opacity="0.1"/>
<path fill-rule="evenodd" clip-rule="evenodd" d="M121.282 128.735C125.016 130.986 128.685 132.073 130.407 131.629C134.726 130.516 135.123 114.717 131.781 108.488C128.44 102.26 111.261 99.5451 110.395 111.886C110.095 116.169 111.893 119.991 114.55 123.11L109.786 145.317H123.625L121.282 128.735Z" fill="#D4A181"/>
<path fill-rule="evenodd" clip-rule="evenodd" d="M133.429 102.645C133.429 105.725 131.014 108.241 127.974 108.403C126.034 109.002 123.476 109.423 120.651 109.548C121.44 111.396 121.895 113.575 121.895 115.908C121.895 116.052 121.894 116.195 121.89 116.338C121.316 115.38 120.37 114.754 119.301 114.754C117.549 114.754 116.129 116.432 116.129 118.503C116.129 120.573 117.549 122.251 119.301 122.251C119.864 122.251 120.392 122.077 120.851 121.773C119.425 125.497 116.683 128.017 113.534 128.017C110.523 128.017 107.883 125.712 106.411 122.254C103.891 123.684 100.518 124.557 96.811 124.557C89.0083 124.557 82.6829 120.685 82.6829 115.908C82.6829 111.13 89.0083 107.258 96.811 107.258C100.518 107.258 103.891 108.132 106.411 109.562C107.015 108.142 107.816 106.917 108.759 105.966C109.56 104.281 114.287 102.848 120.045 102.647C120.674 102.625 121.292 102.618 121.895 102.626C121.905 99.45 124.483 96.8781 127.662 96.8781C130.847 96.8781 133.429 99.4599 133.429 102.645Z" fill="#B58143"/>
<path fill-rule="evenodd" clip-rule="evenodd" d="M105.172 193.179L126.079 266.546L141.333 320.62H152.458L136.249 193.179H105.172Z" fill="#B05200"/>
<path fill-rule="evenodd" clip-rule="evenodd" d="M99.5812 193.179C99.098 230.993 97.4488 251.618 96.9413 255.053C96.4333 258.489 88.7564 280.344 73.9099 320.62H85.4351C104.336 281.983 114.887 260.127 117.088 255.053C119.288 249.98 126.081 229.355 136.312 193.179H99.5812Z" fill="#F28705"/>
<path fill-rule="evenodd" clip-rule="evenodd" d="M72.8798 331L73.4564 318.89H85.5662C94.1791 324.945 108.056 328.693 108.056 328.693V331H86.1429L78.6463 329.847V331H72.8798Z" fill="#191847"/>
<path fill-rule="evenodd" clip-rule="evenodd" d="M139.772 331L140.348 318.89H152.458C161.071 324.945 174.948 328.693 174.948 328.693V331H153.035L145.538 329.847V331H139.772Z" fill="#191847"/>
<path fill-rule="evenodd" clip-rule="evenodd" d="M179.12 168.213L158.225 177.389L164.897 185.936L180.545 173.938C188.362 172.502 191.987 171.269 191.42 170.238C190.943 169.369 190.054 169.32 189.236 169.274C188.598 169.239 188.003 169.206 187.678 168.79C186.936 167.839 188.768 164.901 190.626 162.187C192.484 159.473 190.742 159.572 189.723 159.896C186.314 161.793 182.78 164.565 179.12 168.213ZM85.5662 182.261L73.7496 179.916C65.7356 201.039 60.9578 212.614 59.4162 214.641C58.2858 216.128 51.3144 219.958 46.5957 222.003C44.7017 222.824 45.1084 224.424 45.6639 224.936C49.1679 228.166 52.4254 227.034 55.9713 225.802C56.9978 225.445 58.0486 225.08 59.1365 224.81C61.9523 224.111 62.8091 225.559 63.6189 226.927C64.3359 228.139 65.0159 229.287 66.986 228.829C66.8964 228.442 66.7863 228.009 66.6675 227.542C65.8995 224.52 64.7669 220.063 66.4472 217.474C67.3095 216.145 73.6826 204.408 85.5662 182.261Z" fill="#D4A181"/>
<path fill-rule="evenodd" clip-rule="evenodd" d="M117.683 135.705L122.669 134.85C133.53 145.386 137.962 170.697 145.2 174.047C152.044 177.215 161.745 174.15 173.275 170.011L176.806 177.901C166.33 189.235 144.01 198.812 134.962 193.345C120.498 184.604 117.159 153.387 117.683 135.705Z" fill="#001E6C"/>
<path fill-rule="evenodd" clip-rule="evenodd" d="M95.946 198.369C95.946 198.369 125.937 198.369 140.066 198.369C142.083 198.369 141.703 195.458 141.411 193.989C138.048 177.035 124.918 158.76 124.918 134.626L112.192 132.631C101.665 149.56 98.0247 170.404 95.946 198.369Z" fill="#C7D1D9"/>
<path fill-rule="evenodd" clip-rule="evenodd" d="M111.516 132.631H111.37C82.8251 150.221 65.5739 177.489 59.6167 214.434L68.8648 216.246C74.9909 209.108 82.5511 197.428 91.5454 181.204C88.7859 190.977 86.7712 201.001 86.1429 210.479H125.858C133.547 191.049 116.409 132.631 116.409 132.631H113.667H111.516Z" fill="#0D4AA3"/>
</svg>
