<svg width="500" height="331" viewBox="0 0 500 331" fill="none" xmlns="http://www.w3.org/2000/svg">
<path d="M389.899 98.7828C405.038 98.7828 417.31 86.5105 417.31 71.3719C417.31 56.2332 405.038 43.9609 389.899 43.9609C374.761 43.9609 362.488 56.2332 362.488 71.3719C362.488 86.5105 374.761 98.7828 389.899 98.7828Z" fill="#F2F2F2"/>
<path d="M389.899 51.2016C390.756 51.2016 391.451 50.5069 391.451 49.65C391.451 48.7931 390.756 48.0984 389.899 48.0984C389.042 48.0984 388.348 48.7931 388.348 49.65C388.348 50.5069 389.042 51.2016 389.899 51.2016Z" fill="black" fill-opacity="0.1"/>
<path d="M368.177 72.9234C369.034 72.9234 369.729 72.2288 369.729 71.3719C369.729 70.515 369.034 69.8203 368.177 69.8203C367.32 69.8203 366.626 70.515 366.626 71.3719C366.626 72.2288 367.32 72.9234 368.177 72.9234Z" fill="black" fill-opacity="0.1"/>
<path d="M411.621 72.9234C412.478 72.9234 413.173 72.2288 413.173 71.3719C413.173 70.515 412.478 69.8203 411.621 69.8203C410.764 69.8203 410.07 70.515 410.07 71.3719C410.07 72.2288 410.764 72.9234 411.621 72.9234Z" fill="black" fill-opacity="0.1"/>
<path d="M389.899 94.6453C390.756 94.6453 391.451 93.9506 391.451 93.0937C391.451 92.2368 390.756 91.5422 389.899 91.5422C389.042 91.5422 388.348 92.2368 388.348 93.0937C388.348 93.9506 389.042 94.6453 389.899 94.6453Z" fill="black" fill-opacity="0.1"/>
<path fill-rule="evenodd" clip-rule="evenodd" d="M389.899 52.7531L390.934 70.8547H388.865L389.899 52.7531Z" fill="#AFB9C5"/>
<path fill-rule="evenodd" clip-rule="evenodd" d="M399.052 80.5251L389.544 72.4797L391.007 71.0171L399.052 80.5251Z" fill="#AFB9C5"/>
<path d="M389.899 73.4406C391.042 73.4406 391.968 72.5144 391.968 71.3719C391.968 70.2293 391.042 69.3031 389.899 69.3031C388.757 69.3031 387.831 70.2293 387.831 71.3719C387.831 72.5144 388.757 73.4406 389.899 73.4406Z" fill="#C5CFD6"/>
<mask id="mask0_64_1914" style="mask-type:luminance" maskUnits="userSpaceOnUse" x="0" y="126" width="500" height="168">
<path d="M499.543 126.194H0.457031V293.245H499.543V126.194Z" fill="white"/>
</mask>
<g mask="url(#mask0_64_1914)">
<g opacity="0.345889">
<path fill-rule="evenodd" clip-rule="evenodd" d="M393.348 215.349C387.618 175.5 80.2032 98.5883 23.1328 136.332C-33.9378 174.076 20.9285 244.912 140.527 263.05C260.126 281.19 399.078 255.198 393.348 215.349Z" fill="#F2F2F2"/>
<path fill-rule="evenodd" clip-rule="evenodd" d="M126.775 241.241C132.081 207.388 416.796 142.048 469.652 174.113C522.506 206.178 509.126 273.623 398.362 289.032C287.595 304.442 121.469 275.094 126.775 241.241Z" fill="#C7D1D9"/>
</g>
</g>
<mask id="mask1_64_1914" style="mask-type:luminance" maskUnits="userSpaceOnUse" x="8" y="0" width="52" height="109">
<path d="M59.9336 -7.62939e-06H8.73203V108.609H59.9336V-7.62939e-06Z" fill="white"/>
</mask>
<g mask="url(#mask1_64_1914)">
<path d="M34.3328 108.44C46.4723 108.44 56.3133 103.23 56.3133 96.8035C56.3133 90.3767 46.4723 85.1668 34.3328 85.1668C22.1933 85.1668 12.3524 90.3767 12.3524 96.8035C12.3524 103.23 22.1933 108.44 34.3328 108.44Z" fill="#F2F2F2"/>
<path d="M34.3328 104.82C48.4717 104.82 59.9336 99.0311 59.9336 91.8903C59.9336 84.7494 48.4717 78.9606 34.3328 78.9606C20.1939 78.9606 8.73203 84.7494 8.73203 91.8903C8.73203 99.0311 20.1939 104.82 34.3328 104.82Z" fill="#C7D1D9"/>
<path d="M35.6258 -7.62939e-06H33.0398V82.75H35.6258V-7.62939e-06Z" fill="#C7D1D9"/>
</g>
<mask id="mask2_64_1914" style="mask-type:luminance" maskUnits="userSpaceOnUse" x="71" y="0" width="40" height="83">
<path d="M110.101 -7.62939e-06H71.8289V82.2328H110.101V-7.62939e-06Z" fill="white"/>
</mask>
<g mask="url(#mask2_64_1914)">
<g opacity="0.7">
<path d="M90.9648 82.2327C100.039 82.2327 107.395 78.0282 107.395 72.8417C107.395 67.6552 100.039 63.4507 90.9648 63.4507C81.8909 63.4507 74.535 67.6552 74.535 72.8417C74.535 78.0282 81.8909 82.2327 90.9648 82.2327Z" fill="#F2F2F2"/>
<path d="M90.9648 79.3109C101.533 79.3109 110.101 74.6392 110.101 68.8764C110.101 63.1136 101.533 58.442 90.9648 58.442C80.3963 58.442 71.8289 63.1136 71.8289 68.8764C71.8289 74.6392 80.3963 79.3109 90.9648 79.3109Z" fill="#C7D1D9"/>
<path d="M92.5164 -7.62939e-06H89.9305V70.3375H92.5164V-7.62939e-06Z" fill="#C7D1D9"/>
</g>
</g>
<path fill-rule="evenodd" clip-rule="evenodd" d="M421.476 112.991C420.866 112.665 420.133 112.665 419.523 112.991L398.058 124.481L396.105 120.833L417.571 109.344C419.4 108.365 421.599 108.365 423.428 109.344L474.887 136.887C478.249 138.687 480.349 142.192 480.349 146.007V313.895H476.212V146.007C476.212 143.718 474.952 141.615 472.934 140.535L421.476 112.991Z" fill="#CBCBCB"/>
<path d="M490.751 311.864H463.34C462.483 311.864 461.788 312.559 461.788 313.416V313.933C461.788 314.79 462.483 315.484 463.34 315.484H490.751C491.608 315.484 492.302 314.79 492.302 313.933V313.416C492.302 312.559 491.608 311.864 490.751 311.864Z" fill="#AFB9C5"/>
<path d="M377.745 115.506C384.41 108.841 395.216 108.841 401.881 115.506C408.546 122.171 408.546 132.977 401.881 139.643L391.642 149.882L367.505 125.746L377.745 115.506Z" fill="#C5CFD6"/>
<path d="M377.605 139.913C384.27 146.578 390.737 150.917 392.05 149.604C393.363 148.292 389.024 141.824 382.359 135.159C375.694 128.494 369.226 124.155 367.913 125.468C366.6 126.781 370.939 133.248 377.605 139.913Z" fill="#F2F2F2"/>
<path fill-rule="evenodd" clip-rule="evenodd" d="M30.5874 192.483C32.0691 192.302 33.6501 192.366 35.0279 192.951C37.9578 194.195 38.7905 197.656 38.7501 200.469C38.7067 203.497 38.0638 206.804 40.3658 209.244C41.424 210.365 42.7402 211.224 43.7793 212.366C44.8897 213.587 45.7611 214.983 46.406 216.483C47.5904 219.237 48.1717 222.477 47.0887 225.367C46.135 227.911 43.7358 230.207 44.254 233.101C44.795 236.118 47.8376 238.426 49.7398 240.674C51.8929 243.217 53.8753 246.469 54.2011 249.805C54.513 253.002 53.1212 256.235 50.9857 258.652C46.7184 263.482 40.3038 265.849 33.8363 265.834C31.0901 265.828 27.981 265.704 25.6113 264.229C24.8788 263.772 24.4924 263.26 24.0571 262.549C23.6667 261.911 23.151 261.496 22.5541 261.045C21.2428 260.053 20.2957 258.717 19.6913 257.222C17.3444 251.412 19.2202 244.225 22.5054 239.066C23.2838 237.844 23.9211 236.668 23.5429 235.211C23.1483 233.69 22.1784 232.319 21.3205 231.012C20.4728 229.719 19.505 228.487 18.8424 227.09C18.1485 225.627 17.9531 224.094 18.0757 222.493C18.3061 219.485 19.6047 216.708 21.4433 214.289C23.2142 211.959 25.2935 209.729 25.2981 206.676C25.3032 203.439 23.1397 200.561 24.0614 197.27C24.4431 195.908 25.2096 194.51 26.445 193.693C27.6297 192.91 29.194 192.653 30.5874 192.483Z" fill="#C7D1D9"/>
<path fill-rule="evenodd" clip-rule="evenodd" d="M29.6193 197.657C29.647 197.222 30.1626 196.962 30.5685 197.075C31.1025 197.224 31.0926 197.723 31.0782 198.168C31.0352 199.535 31.2328 200.864 31.5617 202.19C32.2444 204.948 33.5069 207.488 34.5066 210.137C35.5058 212.784 35.9749 215.517 35.3889 218.317C34.836 220.958 33.9682 223.53 33.4024 226.174C32.9043 228.504 32.3737 230.962 33.1329 233.286C33.8632 235.524 35.4779 237.346 36.6405 239.367C39.048 243.553 40.1155 248.196 40.2582 252.975C40.3244 255.193 40.265 257.433 39.7504 259.609C39.454 260.862 39.0558 262.555 37.9821 263.421C37.4871 263.82 36.64 263.958 36.2231 263.367C35.8321 262.813 36.175 261.955 36.2997 261.364C36.8376 258.807 36.9456 256.195 36.8169 253.599C36.6922 251.084 36.3948 248.574 35.6035 246.172C34.8691 243.943 33.753 241.941 32.4399 239.992C31.1014 238.005 29.7102 236.014 29.1572 233.66C28.5954 231.269 29.0518 228.836 29.6621 226.49C30.3076 224.01 31.1531 221.6 32.0272 219.187C32.879 216.835 33.1805 214.61 32.7104 212.148C31.7815 207.286 29.2953 202.721 29.6193 197.657Z" fill="#C5CFD6"/>
<path fill-rule="evenodd" clip-rule="evenodd" d="M69.7043 198.384C71.5377 198.941 73.3587 199.839 74.6657 201.247C77.4445 204.242 76.5917 208.768 75.0577 212.074C73.4063 215.633 70.9042 219.209 72.3151 223.292C72.9631 225.169 74.0533 226.869 74.6683 228.76C75.3256 230.781 75.609 232.886 75.5728 234.996C75.5061 238.869 74.4759 243.003 71.6779 245.857C69.2145 248.37 65.1872 249.838 64.2661 253.528C63.3046 257.379 65.6542 261.691 66.6974 265.338C67.8776 269.467 68.4843 274.344 67.1028 278.458C65.7794 282.402 62.4378 285.502 58.6551 287.249C51.0974 290.74 42.3228 290.203 34.7445 286.821C31.5271 285.385 27.9459 283.621 25.9464 280.643C25.3284 279.722 25.1457 278.916 25.011 277.849C24.8903 276.891 24.5048 276.132 24.0433 275.288C23.0292 273.433 22.6246 271.36 22.7063 269.277C23.0242 261.185 29.0232 253.662 35.603 249.27C37.1623 248.229 38.5313 247.17 38.8577 245.25C39.199 243.246 38.7863 241.12 38.4708 239.127C38.1595 237.158 37.6759 235.198 37.6371 233.201C37.5968 231.109 38.1771 229.195 39.1675 227.365C41.0278 223.928 44.0182 221.32 47.4539 219.415C50.7623 217.581 54.38 216.025 55.9994 212.417C57.7159 208.592 56.6996 204.062 59.5198 200.65C60.6876 199.238 62.3256 197.983 64.2066 197.66C66.01 197.35 67.98 197.86 69.7043 198.384Z" fill="#C7D1D9"/>
<path fill-rule="evenodd" clip-rule="evenodd" d="M65.9594 204.709C66.2195 204.208 66.9591 204.17 67.3744 204.517C67.9205 204.974 67.6469 205.559 67.3977 206.079C66.6312 207.675 66.1667 209.352 65.8564 211.095C65.211 214.719 65.3563 218.389 65.1381 222.05C64.9203 225.708 64.0375 229.19 61.8855 232.199C59.856 235.037 57.494 237.628 55.448 240.463C53.6451 242.961 51.7377 245.593 51.4083 248.743C51.0902 251.776 52.0242 254.78 52.3247 257.784C52.9474 264.002 51.7641 270.06 49.4285 275.794C48.3439 278.456 47.1017 281.077 45.3598 283.384C44.3569 284.713 43.0045 286.51 41.2957 286.971C40.508 287.184 39.4452 286.904 39.2678 285.986C39.1003 285.124 39.951 284.289 40.4056 283.654C42.3735 280.908 43.8687 277.871 45.0774 274.729C46.2488 271.686 47.216 268.557 47.5485 265.298C47.8568 262.274 47.6002 259.318 47.0856 256.321C46.5612 253.267 45.9773 250.18 46.5638 247.102C47.1591 243.976 48.9666 241.334 50.9087 238.876C52.9624 236.277 55.2132 233.867 57.4992 231.467C59.7267 229.128 61.2452 226.651 61.9848 223.49C63.4453 217.244 62.9286 210.536 65.9594 204.709Z" fill="#C5CFD6"/>
<path fill-rule="evenodd" clip-rule="evenodd" d="M13.0278 221.356C16.0762 221.356 18.7563 222.972 20.6031 225.265C22.7649 227.949 23.2015 231.227 24.0793 234.427C24.5161 236.019 25.2674 237.599 26.584 238.681C27.7814 239.665 29.3017 239.861 30.735 240.342C33.5994 241.303 35.9128 243.617 36.8262 246.439C37.9407 249.883 36.76 253.356 36.9632 256.847C37.1499 260.052 40.3105 262.051 42.853 263.588C45.3598 265.103 47.6188 266.521 48.3739 269.473C49.1745 272.603 49.443 276.097 48.3341 279.19C46.4878 284.339 41.0831 286.606 35.8616 286.957C31.1226 287.276 25.1641 286.776 21.6052 283.336C19.4756 281.278 18.7044 278.398 18.8001 275.534C18.8595 273.753 19.2123 271.988 19.6685 270.267C19.9918 269.048 20.4286 267.833 20.553 266.572C20.8838 263.218 17.7842 262.575 15.1457 261.653C11.7929 260.484 9.4457 258.273 7.81351 255.193C6.29349 252.326 5.65575 249.107 6.56693 245.951C7.0323 244.338 7.8764 242.876 9.02114 241.633C9.52509 241.085 10.2353 240.628 10.6902 240.053C11.1147 239.516 11.0222 238.82 10.8759 238.191C10.1994 235.285 8.09175 232.878 7.33795 229.977C6.65744 227.358 7.05971 224.099 9.45372 222.41C10.488 221.681 11.7636 221.365 13.0278 221.356Z" fill="#C5CFD6"/>
<path fill-rule="evenodd" clip-rule="evenodd" d="M17.1817 228.928C20.4127 232.37 21.291 237.04 21.5487 241.566C21.6931 244.104 21.5428 246.781 22.2885 249.242C22.9265 251.35 24.4221 252.96 25.9638 254.483C29.0672 257.546 32.5284 260.662 33.436 265.097C33.9687 267.699 33.6093 270.388 34.3452 272.961C35.014 275.301 36.1926 277.599 37.6258 279.575C38.7796 281.166 40.2825 282.384 41.544 283.867C41.9288 284.32 42.4801 284.986 42.3213 285.626C42.1351 286.374 41.1819 286.611 40.5055 286.493C38.9285 286.219 37.6009 284.713 36.5697 283.618C35.0621 282.018 33.7805 280.296 32.7394 278.364C31.5829 276.219 30.6521 273.943 30.2544 271.537C29.8416 269.04 30.047 266.438 29.1045 264.042C27.5185 260.011 23.6715 257.632 20.8902 254.489C17.4248 250.574 17.9416 245.701 18.2965 240.885C18.4915 238.238 18.6854 235.249 17.3479 232.832C16.8374 231.91 15.6991 231.05 15.4796 230.001C15.2785 229.041 16.3759 228.07 17.1817 228.928Z" fill="#AFB9C5"/>
<path d="M40.7977 315.484C51.9374 315.484 60.968 308.769 60.968 300.486C60.968 292.203 51.9374 285.488 40.7977 285.488C29.6579 285.488 20.6273 292.203 20.6273 300.486C20.6273 308.769 29.6579 315.484 40.7977 315.484Z" fill="#89C5CC"/>
<path d="M133.891 257.042H116.307C115.736 257.042 115.273 257.505 115.273 258.077V260.662C115.273 261.234 115.736 261.697 116.307 261.697H133.891C134.463 261.697 134.926 261.234 134.926 260.662V258.077C134.926 257.505 134.463 257.042 133.891 257.042Z" fill="#AFB9C5"/>
<path fill-rule="evenodd" clip-rule="evenodd" d="M124.177 219.287H125.099H125.616H126.539C126.806 227.262 128.051 234.847 130.271 242.044H133.633C138.06 242.044 141.649 245.633 141.649 250.06C141.649 254.487 138.06 258.077 133.633 258.077H116.566C112.138 258.077 108.549 254.487 108.549 250.06C108.549 245.633 112.138 242.044 116.566 242.044H120.445C123.775 231.249 124.177 219.287 124.177 219.287Z" fill="#C7D1D9"/>
<path fill-rule="evenodd" clip-rule="evenodd" d="M106.802 183.436C106.802 183.436 115.692 182.567 124.582 182.567C133.472 182.567 142.362 183.436 142.362 183.436L144.752 224.528C144.752 224.528 134.667 225.494 124.582 225.494C114.497 225.494 104.412 224.528 104.412 224.528L106.802 183.436Z" fill="#C5CFD6"/>
<path fill-rule="evenodd" clip-rule="evenodd" d="M92.5164 315.484V273.075V261.697H103.377H146.304H157.165V273.075V315.484H146.304V273.075H103.377V315.484H92.5164Z" fill="#F2F2F2"/>
<path fill-rule="evenodd" clip-rule="evenodd" d="M395.268 169.745C399.836 180.6 407.602 188.143 411.715 199.43C414.154 206.124 415.171 213.402 415.233 220.856C415.266 224.904 415.195 228.956 415.177 233.004C415.158 236.953 415.051 240.875 414.716 244.799C414.379 248.742 414.002 252.639 413.836 256.607C413.706 259.699 413.647 263.296 412.599 266.116C411.765 268.359 409.647 268.687 409.085 265.967C408.773 264.455 408.812 262.766 408.847 261.212C408.891 259.219 409.007 257.228 409.066 255.234C409.304 247.234 408.995 239.233 409.157 231.23C409.314 223.411 410.319 215.6 409.207 207.833C408.288 201.42 405.956 195.912 403.275 190.632C400.695 185.552 397.887 180.595 396.144 174.817C395.644 173.157 395.257 171.438 395.071 169.653C395.152 169.615 395.218 169.646 395.268 169.745Z" fill="#C1DEE2"/>
<path fill-rule="evenodd" clip-rule="evenodd" d="M394.023 191.161C394.928 191.814 395.433 192.77 396.044 193.713C396.805 194.885 397.699 195.943 398.459 197.116C400.044 199.562 401.437 202.158 402.882 204.702C405.625 209.532 407.708 214.68 408.739 220.268C409.808 226.058 410.096 232.035 410.545 237.912C411.021 244.141 411.5 250.416 411.563 256.669C411.591 259.471 411.743 262.445 411.406 265.227C411.196 266.958 410.415 268.434 408.653 268.42C404.911 268.39 403.153 264.245 402.419 260.846C401.339 255.839 401.123 250.522 401.294 245.402C401.501 239.229 402.572 233.149 403.036 227C403.527 220.49 403.25 214.095 401.012 207.966C399.881 204.868 398.569 201.845 397.39 198.768C396.888 197.458 396.477 196.112 395.8 194.892C395.046 193.536 394.11 192.304 393.52 190.842C393.687 190.949 393.855 191.055 394.023 191.161Z" fill="#89C5CC"/>
<path fill-rule="evenodd" clip-rule="evenodd" d="M437.136 178.18C437.251 178.091 437.366 178.002 437.481 177.912C437.15 179.305 436.553 180.436 436.097 181.709C435.686 182.854 435.478 184.149 435.202 185.4C434.553 188.338 433.803 191.21 433.191 194.173C431.978 200.036 432.207 206.353 433.003 212.858C433.754 219.003 434.942 225.138 435.508 231.282C435.978 236.377 436.18 241.631 435.732 246.492C435.428 249.793 434.431 253.735 431.713 253.402C430.433 253.245 429.766 251.705 429.497 249.967C429.065 247.175 428.975 244.24 428.807 241.463C428.431 235.267 428.356 229.089 428.282 222.955C428.211 217.169 428.019 211.268 428.405 205.627C428.778 200.184 429.944 195.28 431.612 190.754C432.49 188.37 433.327 185.93 434.314 183.657C434.788 182.568 435.366 181.605 435.839 180.515C436.22 179.639 436.523 178.741 437.136 178.18Z" fill="#C1DEE2"/>
<path fill-rule="evenodd" clip-rule="evenodd" d="M395.179 209.1C395.674 208.269 396.763 211.009 396.929 211.354C396.859 211.182 396.789 211.011 396.718 210.84C397.7 212.474 398.599 214.174 399.157 216.047C399.71 217.901 400.185 219.793 400.704 221.66C401.678 225.163 402.933 228.567 403.815 232.102C404.675 235.547 404.891 238.933 404.683 242.496C404.467 246.199 404.334 249.96 404.587 253.661C404.707 255.429 405.282 257.075 405.676 258.777C406.07 260.48 406.38 262.207 406.846 263.889C406.953 263.67 406.966 264.403 406.966 264.458C406.963 264.879 406.905 265.231 406.769 265.63C406.422 266.655 405.772 267.525 404.783 267.808C402.995 268.318 401.335 266.692 400.759 264.975C399.932 262.511 399.476 259.789 399.082 257.199C398.721 254.825 398.635 252.436 398.743 250.029C398.954 245.282 399.813 240.597 400.045 235.851C400.298 230.684 399.275 225.829 398.418 220.8C398.005 218.377 397.611 215.976 396.807 213.668C396.481 212.733 396.057 211.908 395.613 211.044C395.36 210.553 394.848 209.677 395.179 209.1Z" fill="#C1DEE2"/>
<path fill-rule="evenodd" clip-rule="evenodd" d="M409.683 201.029C409.478 206.948 409.124 212.823 408.335 218.679C407.53 224.656 406.604 230.612 405.83 236.594C405.075 242.417 404.285 248.337 404.39 254.242C404.467 258.59 403.746 265.948 408.576 268.094C413.468 270.268 414.518 260.985 414.839 257.921C415.455 252.043 415.255 246.102 414.956 240.192C414.65 234.125 414.138 228.09 413.504 222.046C412.799 215.333 412.246 208.589 411.802 201.856C411.582 198.526 411.528 195.202 411.589 191.87C411.646 188.727 411.526 185.551 410.409 182.567C410.35 182.61 410.292 182.652 410.234 182.694" fill="#56919C"/>
<path fill-rule="evenodd" clip-rule="evenodd" d="M434.937 219.781C434.058 221.063 433.171 222.332 432.34 223.69C430.853 226.119 429.509 228.82 429.105 232.293C428.258 239.561 428.937 247.412 429.101 254.903C429.135 256.433 428.941 257.918 429.544 259.375C430.091 260.696 431.114 261.702 432.089 261.697C434.176 261.685 433.858 256.574 433.861 254.325C433.867 250.382 433.425 246.399 433.463 242.461C433.501 238.558 433.739 234.645 434.304 230.939C434.877 227.188 435.716 223.585 436.823 220.224C436.977 219.757 438.079 216.152 437.038 216.773" fill="#89C5CC"/>
<path fill-rule="evenodd" clip-rule="evenodd" d="M425.721 181.016C424.349 181.016 424.357 187.856 424.316 188.735C424.167 191.905 424.202 195.077 424.108 198.248C423.901 205.169 423.648 212.15 422.608 218.991C422.048 222.674 421.4 226.34 420.701 229.994C420.002 233.66 419.062 237.32 418.602 241.032C418.159 244.6 418.409 248.238 418.47 251.824C418.53 255.431 418.639 259.046 419.112 262.622C419.228 263.504 419.366 264.384 419.512 265.261C419.633 265.992 419.563 266.899 419.769 267.593C420.099 268.706 421.516 269.07 422.471 268.896C425.053 268.425 426.702 265.183 427.584 262.814C428.711 259.789 429.308 256.508 429.898 253.32C430.566 249.709 430.958 246.043 431.141 242.366C431.515 234.894 431.036 227.414 430.501 219.965C430.203 215.823 429.859 211.699 429.333 207.582C428.808 203.483 428.136 199.402 427.698 195.291C427.38 192.303 427.067 189.311 426.861 186.312C426.811 185.597 426.77 181.016 425.721 181.016Z" fill="#56919C"/>
<path fill-rule="evenodd" clip-rule="evenodd" d="M424.003 230.737C423.779 223.556 420.893 192.01 420.236 183.326C420.071 181.152 418.49 172.102 418.285 169.637C417.729 170.334 417.776 181.175 417.782 183.667C417.789 186.131 417.483 188.554 417.326 191.005C417.166 193.506 413.469 225.805 412.989 228.207C412.034 232.988 411.396 237.894 410.903 242.782C410.423 247.546 409.676 252.573 410.319 257.362C410.466 258.464 410.7 259.549 411.081 260.562C411.491 261.657 411.773 262.669 412.103 263.814C412.634 265.658 413.594 267.277 415.07 268.039C418.095 269.6 419.719 266.066 420.543 262.988C421.858 258.074 422.702 253.079 423.098 247.918C423.536 242.208 424.182 236.487 424.003 230.737Z" fill="#89C5CC"/>
<path d="M437.998 251.87H393.002C392.431 251.87 391.968 252.333 391.968 252.905V297.9C391.968 298.471 392.431 298.934 393.002 298.934H437.998C438.569 298.934 439.032 298.471 439.032 297.9V252.905C439.032 252.333 438.569 251.87 437.998 251.87Z" fill="white"/>
<path d="M390.934 257.042H387.83C387.259 257.042 386.796 257.505 386.796 258.077V314.45C386.796 315.021 387.259 315.484 387.83 315.484H390.934C391.505 315.484 391.968 315.021 391.968 314.45V258.077C391.968 257.505 391.505 257.042 390.934 257.042Z" fill="#C5CFD6"/>
<path d="M416.793 257.042H413.69C413.119 257.042 412.656 257.505 412.656 258.077V314.45C412.656 315.021 413.119 315.484 413.69 315.484H416.793C417.364 315.484 417.827 315.021 417.827 314.45V258.077C417.827 257.505 417.364 257.042 416.793 257.042Z" fill="#C5CFD6"/>
<path d="M443.17 257.042H440.066C439.495 257.042 439.032 257.505 439.032 258.077V314.45C439.032 315.021 439.495 315.484 440.066 315.484H443.17C443.741 315.484 444.204 315.021 444.204 314.45V258.077C444.204 257.505 443.741 257.042 443.17 257.042Z" fill="#C5CFD6"/>
<path fill-rule="evenodd" clip-rule="evenodd" d="M254.88 149.594C258.229 151.612 261.52 152.588 263.064 152.189C266.938 151.191 267.294 137.021 264.297 131.435C261.3 125.849 245.893 123.414 245.116 134.482C244.847 138.323 246.46 141.751 248.843 144.549L244.57 164.466H256.982L254.88 149.594Z" fill="#915B3C"/>
<path fill-rule="evenodd" clip-rule="evenodd" d="M247.889 147.04C246.331 140.109 241.893 135.385 242.571 132.287C243.249 129.189 246.184 128.434 246.184 128.434C246.184 128.434 247.702 122.293 255.976 123.21C264.251 124.127 269.301 127.563 267.12 135.124C265.115 135.124 262.695 134.399 259.348 135.642C257.756 136.233 257.07 139.309 257.07 139.309H255.558C255.558 139.309 253.356 135.659 251.216 136.626C249.076 137.593 250.243 141.326 250.243 141.326L249.498 147.04H247.889Z" fill="#4A312C"/>
<path fill-rule="evenodd" clip-rule="evenodd" d="M243.535 207.392L268.92 271.641L285.945 325.957H292.668L265.606 207.392H243.535Z" fill="#915B3C"/>
<path fill-rule="evenodd" clip-rule="evenodd" d="M238.424 207.392C238.153 229.97 234.211 260.366 233.581 261.774C232.951 263.181 190.097 297.568 190.097 297.568L194.728 302.523C194.728 302.523 245.292 273.041 247.632 269.109C249.972 265.177 257.589 228.992 263.705 207.392H238.424Z" fill="#915B3C"/>
<path fill-rule="evenodd" clip-rule="evenodd" d="M190.842 296.64C190.673 296.059 190.06 295.713 189.491 295.921C188.454 296.3 186.936 296.913 186.264 297.477C185.192 298.377 183.436 300.459 183.436 300.459C184.479 301.702 202.186 322.805 202.186 322.805C202.186 322.805 205.797 321.259 204.452 319.19C203.107 317.121 202.25 315.724 202.25 315.724L198.165 301.453C198.085 301.173 197.789 301.014 197.512 301.102L195.332 301.794C195.332 301.794 193.064 300.737 192.152 299.65C191.597 298.989 191.126 297.614 190.842 296.64Z" fill="#E4E4E4"/>
<path fill-rule="evenodd" clip-rule="evenodd" d="M284.626 322.872C284.071 322.628 283.412 322.875 283.206 323.444C282.83 324.482 282.324 326.04 282.324 326.917C282.324 328.316 282.79 331 282.79 331C284.413 331 311.961 331 311.961 331C311.961 331 313.098 327.241 310.648 326.941C308.198 326.642 306.578 326.4 306.578 326.4L293.02 320.356C292.753 320.237 292.442 320.361 292.331 320.631L291.459 322.745C291.459 322.745 289.191 323.803 287.774 323.803C286.911 323.803 285.555 323.28 284.626 322.872Z" fill="#E4E4E4"/>
<path fill-rule="evenodd" clip-rule="evenodd" d="M260.602 320.363L292.567 316.894L266.809 207.392H240.248L260.602 320.363Z" fill="#001E6C"/>
<path fill-rule="evenodd" clip-rule="evenodd" d="M196.709 289.573L217.676 314.391C217.676 314.391 250.802 278.212 256.301 267.177C261.8 256.142 266.187 207.392 266.187 207.392H233.956C233.956 207.392 231.559 250.28 230.725 252.276C229.89 254.272 196.709 289.573 196.709 289.573Z" fill="#0D4AA3"/>
<path fill-rule="evenodd" clip-rule="evenodd" d="M198.037 224.563C200.063 221.798 212.266 192.071 212.266 192.071L221.374 193.72C221.374 193.72 205.517 225.186 204.388 226.995C202.921 229.344 204.007 233.325 204.743 236.024C204.857 236.442 204.963 236.829 205.049 237.174C203.289 237.617 202.661 236.596 201.999 235.52C201.251 234.305 200.46 233.019 197.945 233.691C196.973 233.95 196.037 234.295 195.121 234.631C191.96 235.792 189.056 236.858 185.862 234.015C185.356 233.565 184.966 232.135 186.652 231.369C190.853 229.46 197.046 225.915 198.037 224.563ZM303.419 209.231L286.922 197.117L283.275 206.132L299.612 212.906C304.232 218.333 306.816 220.596 307.362 219.694C307.824 218.933 307.463 218.221 307.131 217.565C306.873 217.054 306.631 216.576 306.809 216.137C307.214 215.134 310.318 215.24 313.259 215.466C316.2 215.692 315.343 214.384 314.634 213.738C311.632 211.94 307.893 210.438 303.419 209.231Z" fill="#915B3C"/>
<path fill-rule="evenodd" clip-rule="evenodd" d="M257.119 154.143L251.587 156.412C251.645 157.856 251.64 159.912 251.633 162.266C251.613 169.656 251.584 179.995 253.493 183.664C260.107 196.377 273.689 202.999 288.815 210.374C290.843 211.362 292.898 212.364 294.968 213.397L299.13 204.9C298.648 204.559 298.17 204.215 297.697 203.869C298.35 203.64 298.896 203.123 299.134 202.415C299.545 201.197 298.89 199.877 297.672 199.467C295.197 198.633 292.887 198.281 290.765 198.433C275.264 185.372 264.829 170.081 257.119 154.143Z" fill="#B16900"/>
<path fill-rule="evenodd" clip-rule="evenodd" d="M232.157 212C232.157 212 256.546 214.679 270.551 212C271.708 211.779 271.657 206.792 271.12 205.43C262.767 184.223 257.272 168.698 257.272 153.968C254.973 155.169 249.224 154.328 249.224 154.328C238.925 169.508 234.191 186.925 232.157 212Z" fill="#191847"/>
<path fill-rule="evenodd" clip-rule="evenodd" d="M201.225 212.257C215.597 171.179 245.074 153.088 245.074 153.088H245.879H247.868H250.956C250.29 161.898 253.42 174.719 257.051 189.593C262.859 213.38 269.948 242.416 264.839 268.688C258.555 270.091 251.172 269.134 243.179 268.097C231.644 266.599 218.839 264.938 206.237 269.972C206.723 259.447 212.868 247.797 218.985 236.199C222.863 228.847 226.729 221.517 229.136 214.508C228.584 213.988 228.296 213.209 228.437 212.407L228.707 210.879C228.889 209.843 229.73 209.089 230.723 208.971C230.897 208.195 231.047 207.425 231.17 206.659C231.802 202.75 231.399 198.887 231 195.067C230.781 192.97 230.563 190.886 230.519 188.814C223.593 194.985 215.208 205.744 208.133 224.393L198.365 221.518C198.738 220.131 199.13 218.766 199.537 217.424C198.407 216.8 197.074 213.842 198.026 213.348C199.032 212.827 200.1 212.464 201.225 212.257Z" fill="#F29F04"/>
<path fill-rule="evenodd" clip-rule="evenodd" d="M247.21 153.605L244.542 161.81L249.915 167.961L245.059 172.795L256.807 192.911L242.441 172.835L247.21 167.961L242.441 162.525L247.21 153.605Z" fill="black" fill-opacity="0.1"/>
<path fill-rule="evenodd" clip-rule="evenodd" d="M255.43 198.6C255.43 199.743 254.504 200.669 253.362 200.669C252.219 200.669 251.293 199.743 251.293 198.6C251.293 197.457 252.219 196.531 253.362 196.531C254.504 196.531 255.43 197.457 255.43 198.6ZM258.016 210.495C258.016 211.638 257.09 212.564 255.948 212.564C254.805 212.564 253.879 211.638 253.879 210.495C253.879 209.353 254.805 208.427 255.948 208.427C257.09 208.427 258.016 209.353 258.016 210.495ZM256.465 224.459C257.607 224.459 258.534 223.533 258.534 222.391C258.534 221.248 257.607 220.322 256.465 220.322C255.322 220.322 254.396 221.248 254.396 222.391C254.396 223.533 255.322 224.459 256.465 224.459Z" fill="black" fill-opacity="0.4"/>
</svg>
